<svg width="323" height="367" viewBox="0 0 323 367" fill="none" xmlns="http://www.w3.org/2000/svg">
<g clip-path="url(#clip0_1590_180722)">
<path d="M66 361L66 367L61.6 367L61.6 361L66 361Z" fill="#365969"/>
<path d="M66 355L66 361L61.6 361L61.6 355L66 355Z" fill="#0098AF"/>
<path d="M66 349L66 355L61.6 355L61.6 349L66 349Z" fill="#09C1DE"/>
<path d="M66 343L66 349L61.6 349L61.6 343L66 343Z" fill="#66EAFF"/>
<path d="M66 337L66 343L61.6 343L61.6 337L66 337Z" fill="#09C1DE"/>
<path d="M66 331L66 337L61.6 337L61.6 331L66 331Z" fill="#365969"/>
<path d="M61.6001 361L61.6001 367L57.2001 367L57.2001 361L61.6001 361Z" fill="#365969"/>
<path d="M61.6001 355L61.6001 361L57.2001 361L57.2001 355L61.6001 355Z" fill="#0098AF"/>
<path d="M61.6001 349L61.6001 355L57.2001 355L57.2001 349L61.6001 349Z" fill="#09C1DE"/>
<path d="M61.6001 343L61.6001 349L57.2001 349L57.2001 343L61.6001 343Z" fill="#66EAFF"/>
<path d="M61.6001 337L61.6001 343L57.2001 343L57.2001 337L61.6001 337Z" fill="#09C1DE"/>
<path d="M61.6001 331L61.6001 337L57.2001 337L57.2001 331L61.6001 331Z" fill="#365969"/>
<path d="M57.2002 361L57.2002 367L52.8002 367L52.8002 361L57.2002 361Z" fill="#365969"/>
<path d="M57.2002 355L57.2002 361L52.8002 361L52.8002 355L57.2002 355Z" fill="#0098AF"/>
<path d="M57.2002 349L57.2002 355L52.8002 355L52.8002 349L57.2002 349Z" fill="#09C1DE"/>
<path d="M57.2002 343L57.2002 349L52.8002 349L52.8002 343L57.2002 343Z" fill="#66EAFF"/>
<path d="M57.2002 337L57.2002 343L52.8002 343L52.8002 337L57.2002 337Z" fill="#09C1DE"/>
<path d="M57.2002 331L57.2002 337L52.8002 337L52.8002 331L57.2002 331Z" fill="#365969"/>
<path d="M52.7998 361L52.7998 367L48.3998 367L48.3998 361L52.7998 361Z" fill="#365969"/>
<path d="M52.7998 355L52.7998 361L48.3998 361L48.3998 355L52.7998 355Z" fill="#0098AF"/>
<path d="M52.7998 349L52.7998 355L48.3998 355L48.3998 349L52.7998 349Z" fill="#09C1DE"/>
<path d="M52.7998 343L52.7998 349L48.3998 349L48.3998 343L52.7998 343Z" fill="#66EAFF"/>
<path d="M52.7998 337L52.7998 343L48.3998 343L48.3998 337L52.7998 337Z" fill="#09C1DE"/>
<path d="M52.7998 331L52.7998 337L48.3998 337L48.3998 331L52.7998 331Z" fill="#365969"/>
<path d="M48.3999 361L48.3999 367L43.9999 367L43.9999 361L48.3999 361Z" fill="#365969"/>
<path d="M48.3999 355L48.3999 361L43.9999 361L43.9999 355L48.3999 355Z" fill="#0098AF"/>
<path d="M48.3999 349L48.3999 355L43.9999 355L43.9999 349L48.3999 349Z" fill="#09C1DE"/>
<path d="M48.3999 343L48.3999 349L43.9999 349L43.9999 343L48.3999 343Z" fill="#66EAFF"/>
<path d="M48.3999 337L48.3999 343L43.9999 343L43.9999 337L48.3999 337Z" fill="#09C1DE"/>
<path d="M48.3999 331L48.3999 337L43.9999 337L43.9999 331L48.3999 331Z" fill="#365969"/>
<path d="M44 361L44 367L39.6 367L39.6 361L44 361Z" fill="#365969"/>
<path d="M44 355L44 361L39.6 361L39.6 355L44 355Z" fill="#0098AF"/>
<path d="M44 349L44 355L39.6 355L39.6 349L44 349Z" fill="#09C1DE"/>
<path d="M44 343L44 349L39.6 349L39.6 343L44 343Z" fill="#66EAFF"/>
<path d="M44 337L44 343L39.6 343L39.6 337L44 337Z" fill="#09C1DE"/>
<path d="M44 331L44 337L39.6 337L39.6 331L44 331Z" fill="#365969"/>
<path d="M39.6001 361L39.6001 367L35.2001 367L35.2001 361L39.6001 361Z" fill="#365969"/>
<path d="M39.6001 355L39.6001 361L35.2001 361L35.2001 355L39.6001 355Z" fill="#0098AF"/>
<path d="M39.6001 349L39.6001 355L35.2001 355L35.2001 349L39.6001 349Z" fill="#09C1DE"/>
<path d="M39.6001 343L39.6001 349L35.2001 349L35.2001 343L39.6001 343Z" fill="#66EAFF"/>
<path d="M39.6001 337L39.6001 343L35.2001 343L35.2001 337L39.6001 337Z" fill="#09C1DE"/>
<path d="M39.6001 331L39.6001 337L35.2001 337L35.2001 331L39.6001 331Z" fill="#365969"/>
<path d="M35.2002 361L35.2002 367L30.8002 367L30.8002 361L35.2002 361Z" fill="#365969"/>
<path d="M35.2002 355L35.2002 361L30.8002 361L30.8002 355L35.2002 355Z" fill="#0098AF"/>
<path d="M35.2002 349L35.2002 355L30.8002 355L30.8002 349L35.2002 349Z" fill="#09C1DE"/>
<path d="M35.2002 343L35.2002 349L30.8002 349L30.8002 343L35.2002 343Z" fill="#66EAFF"/>
<path d="M35.2002 337L35.2002 343L30.8002 343L30.8002 337L35.2002 337Z" fill="#09C1DE"/>
<path d="M35.2002 331L35.2002 337L30.8002 337L30.8002 331L35.2002 331Z" fill="#365969"/>
<path d="M30.7998 361L30.7998 367L26.3998 367L26.3998 361L30.7998 361Z" fill="#365969"/>
<path d="M30.7998 355L30.7998 361L26.3998 361L26.3998 355L30.7998 355Z" fill="#0098AF"/>
<path d="M30.7998 349L30.7998 355L26.3998 355L26.3998 349L30.7998 349Z" fill="#09C1DE"/>
<path d="M30.7998 343L30.7998 349L26.3998 349L26.3998 343L30.7998 343Z" fill="#66EAFF"/>
<path d="M30.7998 337L30.7998 343L26.3998 343L26.3998 337L30.7998 337Z" fill="#09C1DE"/>
<path d="M30.7998 331L30.7998 337L26.3998 337L26.3998 331L30.7998 331Z" fill="#365969"/>
<path d="M26.3999 361L26.3999 367L21.9999 367L21.9999 361L26.3999 361Z" fill="#365969"/>
<path d="M26.3999 355L26.3999 361L21.9999 361L21.9999 355L26.3999 355Z" fill="#0098AF"/>
<path d="M26.3999 349L26.3999 355L21.9999 355L21.9999 349L26.3999 349Z" fill="#09C1DE"/>
<path d="M26.3999 343L26.3999 349L21.9999 349L21.9999 343L26.3999 343Z" fill="#66EAFF"/>
<path d="M26.3999 337L26.3999 343L21.9999 343L21.9999 337L26.3999 337Z" fill="#09C1DE"/>
<path d="M26.3999 331L26.3999 337L21.9999 337L21.9999 331L26.3999 331Z" fill="#365969"/>
<path d="M22 361L22 367L17.6 367L17.6 361L22 361Z" fill="#365969"/>
<path d="M22 355L22 361L17.6 361L17.6 355L22 355Z" fill="#0098AF"/>
<path d="M22 349L22 355L17.6 355L17.6 349L22 349Z" fill="#09C1DE"/>
<path d="M22 343L22 349L17.6 349L17.6 343L22 343Z" fill="#66EAFF"/>
<path d="M22 337L22 343L17.6 343L17.6 337L22 337Z" fill="#09C1DE"/>
<path d="M22 331L22 337L17.6 337L17.6 331L22 331Z" fill="#365969"/>
<path d="M17.6001 361L17.6001 367L13.2001 367L13.2001 361L17.6001 361Z" fill="#365969"/>
<path d="M17.6001 355L17.6001 361L13.2001 361L13.2001 355L17.6001 355Z" fill="#0098AF"/>
<path d="M17.6001 349L17.6001 355L13.2001 355L13.2001 349L17.6001 349Z" fill="#09C1DE"/>
<path d="M17.6001 343L17.6001 349L13.2001 349L13.2001 343L17.6001 343Z" fill="#66EAFF"/>
<path d="M17.6001 337L17.6001 343L13.2001 343L13.2001 337L17.6001 337Z" fill="#09C1DE"/>
<path d="M17.6001 331L17.6001 337L13.2001 337L13.2001 331L17.6001 331Z" fill="#365969"/>
<path d="M13.2002 361L13.2002 367L8.80019 367L8.80019 361L13.2002 361Z" fill="#365969"/>
<path d="M13.2002 355L13.2002 361L8.80019 361L8.80019 355L13.2002 355Z" fill="#0098AF"/>
<path d="M13.2002 349L13.2002 355L8.80019 355L8.80019 349L13.2002 349Z" fill="#09C1DE"/>
<path d="M13.2002 343L13.2002 349L8.80019 349L8.80019 343L13.2002 343Z" fill="#66EAFF"/>
<path d="M13.2002 337L13.2002 343L8.80019 343L8.80019 337L13.2002 337Z" fill="#09C1DE"/>
<path d="M13.2002 331L13.2002 337L8.80019 337L8.80019 331L13.2002 331Z" fill="#365969"/>
<path d="M8.7998 361L8.7998 367L4.39981 367L4.39981 361L8.7998 361Z" fill="#365969"/>
<path d="M8.7998 355L8.7998 361L4.39981 361L4.39981 355L8.7998 355Z" fill="#0098AF"/>
<path d="M8.7998 349L8.7998 355L4.39981 355L4.39981 349L8.7998 349Z" fill="#09C1DE"/>
<path d="M8.7998 343L8.7998 349L4.39981 349L4.39981 343L8.7998 343Z" fill="#66EAFF"/>
<path d="M8.7998 337L8.7998 343L4.39981 343L4.39981 337L8.7998 337Z" fill="#09C1DE"/>
<path d="M8.7998 331L8.7998 337L4.39981 337L4.39981 331L8.7998 331Z" fill="#365969"/>
<path d="M4.3999 361L4.3999 367L-9.91821e-05 367L-9.94841e-05 361L4.3999 361Z" fill="#365969"/>
<path d="M4.3999 355L4.3999 361L-9.91821e-05 361L-9.94841e-05 355L4.3999 355Z" fill="#0098AF"/>
<path d="M4.3999 349L4.3999 355L-9.91821e-05 355L-9.94841e-05 349L4.3999 349Z" fill="#09C1DE"/>
<path d="M4.3999 343L4.3999 349L-9.91821e-05 349L-9.94841e-05 343L4.3999 343Z" fill="#66EAFF"/>
<path d="M4.3999 337L4.3999 343L-9.91821e-05 343L-9.94841e-05 337L4.3999 337Z" fill="#09C1DE"/>
<path d="M4.3999 331L4.3999 337L-9.91821e-05 337L-9.94841e-05 331L4.3999 331Z" fill="#365969"/>
</g>
<path d="M68 367H74V361H68V367Z" fill="#365969"/>
<path d="M68 361H74V355H68V361Z" fill="#0098AF"/>
<path d="M68 355H74V349H68V355Z" fill="#09C1DE"/>
<path d="M68 349H74V343H68V349Z" fill="#66EAFF"/>
<path d="M68 343H74V337H68V343Z" fill="#09C1DE"/>
<path d="M68 337H74V331H68V337Z" fill="#365969"/>
<path d="M62 367H68V361H62V367Z" fill="#365969"/>
<path d="M62 361H68V355H62V361Z" fill="#0098AF"/>
<path d="M62 355H68V349H62V355Z" fill="#09C1DE"/>
<path d="M62 349H68V343H62V349Z" fill="#66EAFF"/>
<path d="M62 343H68V337H62V343Z" fill="#09C1DE"/>
<path d="M62 337H68V331H62V337Z" fill="#365969"/>
<path d="M74 367H80V361H74V367Z" fill="#365969"/>
<path d="M74 361H80V355H74V361Z" fill="#0098AF"/>
<path d="M74 355H80V349H74V355Z" fill="#09C1DE"/>
<path d="M74 349H80V343H74V349Z" fill="#66EAFF"/>
<path d="M74 343H80V337H74V343Z" fill="#09C1DE"/>
<path d="M74 337H80V331H74V337Z" fill="#66EAFF"/>
<path d="M74 331H80V325H74V331Z" fill="#365969"/>
<path d="M110 337H116V331H110V337Z" fill="#365969"/>
<path d="M110 331H116V325H110V331Z" fill="#365969"/>
<path d="M110 325H116V319H110V325Z" fill="#365969"/>
<path d="M110 319H116V313H110V319Z" fill="#365969"/>
<path d="M104 343H110V337H104V343Z" fill="#365969"/>
<path d="M104 337H110V331H104V337Z" fill="#0098AF"/>
<path d="M104 331H110V325H104V331Z" fill="#0098AF"/>
<path d="M104 325H110V319H104V325Z" fill="#0098AF"/>
<path d="M104 319H110V313H104V319Z" fill="#0098AF"/>
<path d="M98 349H104V343H98V349Z" fill="#365969"/>
<path d="M98 343H104V337H98V343Z" fill="#0098AF"/>
<path d="M98 337H104V331H98V337Z" fill="#09C1DE"/>
<path d="M98 331H104V325H98V331Z" fill="#09C1DE"/>
<path d="M98 325H104V319H98V325Z" fill="#09C1DE"/>
<path d="M98 319H104V313H98V319Z" fill="#09C1DE"/>
<path d="M92 355H98V349H92V355Z" fill="#365969"/>
<path d="M92 349H98V343H92V349Z" fill="#0098AF"/>
<path d="M92 343H98V337H92V343Z" fill="#09C1DE"/>
<path d="M92 337H98V331H92V337Z" fill="#66EAFF"/>
<path d="M92 331H98V325H92V331Z" fill="#66EAFF"/>
<path d="M92 325H98V319H92V325Z" fill="#66EAFF"/>
<path d="M92 319H98V313H92V319Z" fill="#66EAFF"/>
<path d="M86 361H92V355H86V361Z" fill="#365969"/>
<path d="M86 355H92V349H86V355Z" fill="#0098AF"/>
<path d="M86 349H92V343H86V349Z" fill="#09C1DE"/>
<path d="M86 343H92V337H86V343Z" fill="#66EAFF"/>
<path d="M86 337H92V331H86V337Z" fill="#66EAFF"/>
<path d="M86 331H92V325H86V331Z" fill="#09C1DE"/>
<path d="M86 325H92V319H86V325Z" fill="#09C1DE"/>
<path d="M86 319H92V313H86V319Z" fill="#09C1DE"/>
<path d="M80 367H86V361H80V367Z" fill="#365969"/>
<path d="M80 361H86V355H80V361Z" fill="#0098AF"/>
<path d="M80 355H86V349H80V355Z" fill="#09C1DE"/>
<path d="M80 349H86V343H80V349Z" fill="#66EAFF"/>
<path d="M80 343H86V337H80V343Z" fill="#66EAFF"/>
<path d="M80 337H86V331H80V337Z" fill="#09C1DE"/>
<path d="M80 331H86V325H80V331Z" fill="#66EAFF"/>
<path d="M80 325H86V319H80V325Z" fill="#365969"/>
<path d="M80 319H86V313H80V319Z" fill="#365969"/>
<g clip-path="url(#clip1_1590_180722)">
<path d="M110 232H116V237.467H110V232Z" fill="#365969"/>
<path d="M104 232H110V237.467H104V232Z" fill="#0098AF"/>
<path d="M98 232H104V237.467H98V232Z" fill="#09C1DE"/>
<path d="M92 232H98V237.467H92V232Z" fill="#66EAFF"/>
<path d="M86 232H92V237.467H86V232Z" fill="#09C1DE"/>
<path d="M80 232H86V237.467H80V232Z" fill="#365969"/>
<path d="M110 237.467H116V242.933H110V237.467Z" fill="#365969"/>
<path d="M104 237.467H110V242.933H104V237.467Z" fill="#0098AF"/>
<path d="M98 237.467H104V242.933H98V237.467Z" fill="#09C1DE"/>
<path d="M92 237.467H98V242.933H92V237.467Z" fill="#66EAFF"/>
<path d="M86 237.467H92V242.933H86V237.467Z" fill="#09C1DE"/>
<path d="M80 237.467H86V242.933H80V237.467Z" fill="#365969"/>
<path d="M110 242.933H116V248.4H110V242.933Z" fill="#365969"/>
<path d="M104 242.933H110V248.4H104V242.933Z" fill="#0098AF"/>
<path d="M98 242.933H104V248.4H98V242.933Z" fill="#09C1DE"/>
<path d="M92 242.933H98V248.4H92V242.933Z" fill="#66EAFF"/>
<path d="M86 242.933H92V248.4H86V242.933Z" fill="#09C1DE"/>
<path d="M80 242.933H86V248.4H80V242.933Z" fill="#365969"/>
<path d="M110 248.4H116V253.867H110V248.4Z" fill="#365969"/>
<path d="M104 248.4H110V253.867H104V248.4Z" fill="#0098AF"/>
<path d="M98 248.4H104V253.867H98V248.4Z" fill="#09C1DE"/>
<path d="M92 248.4H98V253.867H92V248.4Z" fill="#66EAFF"/>
<path d="M86 248.4H92V253.867H86V248.4Z" fill="#09C1DE"/>
<path d="M80 248.4H86V253.867H80V248.4Z" fill="#365969"/>
<path d="M110 253.867H116V259.333H110V253.867Z" fill="#365969"/>
<path d="M104 253.867H110V259.333H104V253.867Z" fill="#0098AF"/>
<path d="M98 253.867H104V259.333H98V253.867Z" fill="#09C1DE"/>
<path d="M92 253.867H98V259.333H92V253.867Z" fill="#66EAFF"/>
<path d="M86 253.867H92V259.333H86V253.867Z" fill="#09C1DE"/>
<path d="M80 253.867H86V259.333H80V253.867Z" fill="#365969"/>
<path d="M110 259.333H116V264.8H110V259.333Z" fill="#365969"/>
<path d="M104 259.333H110V264.8H104V259.333Z" fill="#0098AF"/>
<path d="M98 259.333H104V264.8H98V259.333Z" fill="#09C1DE"/>
<path d="M92 259.333H98V264.8H92V259.333Z" fill="#66EAFF"/>
<path d="M86 259.333H92V264.8H86V259.333Z" fill="#09C1DE"/>
<path d="M80 259.333H86V264.8H80V259.333Z" fill="#365969"/>
<path d="M110 264.8H116V270.267H110V264.8Z" fill="#365969"/>
<path d="M104 264.8H110V270.267H104V264.8Z" fill="#0098AF"/>
<path d="M98 264.8H104V270.267H98V264.8Z" fill="#09C1DE"/>
<path d="M92 264.8H98V270.267H92V264.8Z" fill="#66EAFF"/>
<path d="M86 264.8H92V270.267H86V264.8Z" fill="#09C1DE"/>
<path d="M80 264.8H86V270.267H80V264.8Z" fill="#365969"/>
<path d="M110 270.267H116V275.733H110V270.267Z" fill="#365969"/>
<path d="M104 270.267H110V275.733H104V270.267Z" fill="#0098AF"/>
<path d="M98 270.267H104V275.733H98V270.267Z" fill="#09C1DE"/>
<path d="M92 270.267H98V275.733H92V270.267Z" fill="#66EAFF"/>
<path d="M86 270.267H92V275.733H86V270.267Z" fill="#09C1DE"/>
<path d="M80 270.267H86V275.733H80V270.267Z" fill="#365969"/>
<path d="M110 275.733H116V281.2H110V275.733Z" fill="#365969"/>
<path d="M104 275.733H110V281.2H104V275.733Z" fill="#0098AF"/>
<path d="M98 275.733H104V281.2H98V275.733Z" fill="#09C1DE"/>
<path d="M92 275.733H98V281.2H92V275.733Z" fill="#66EAFF"/>
<path d="M86 275.733H92V281.2H86V275.733Z" fill="#09C1DE"/>
<path d="M80 275.733H86V281.2H80V275.733Z" fill="#365969"/>
<path d="M110 281.2H116V286.667H110V281.2Z" fill="#365969"/>
<path d="M104 281.2H110V286.667H104V281.2Z" fill="#0098AF"/>
<path d="M98 281.2H104V286.667H98V281.2Z" fill="#09C1DE"/>
<path d="M92 281.2H98V286.667H92V281.2Z" fill="#66EAFF"/>
<path d="M86 281.2H92V286.667H86V281.2Z" fill="#09C1DE"/>
<path d="M80 281.2H86V286.667H80V281.2Z" fill="#365969"/>
<path d="M110 286.667H116V292.133H110V286.667Z" fill="#365969"/>
<path d="M104 286.667H110V292.133H104V286.667Z" fill="#0098AF"/>
<path d="M98 286.667H104V292.133H98V286.667Z" fill="#09C1DE"/>
<path d="M92 286.667H98V292.133H92V286.667Z" fill="#66EAFF"/>
<path d="M86 286.667H92V292.133H86V286.667Z" fill="#09C1DE"/>
<path d="M80 286.667H86V292.133H80V286.667Z" fill="#365969"/>
<path d="M110 292.133H116V297.6H110V292.133Z" fill="#365969"/>
<path d="M104 292.133H110V297.6H104V292.133Z" fill="#0098AF"/>
<path d="M98 292.133H104V297.6H98V292.133Z" fill="#09C1DE"/>
<path d="M92 292.133H98V297.6H92V292.133Z" fill="#66EAFF"/>
<path d="M86 292.133H92V297.6H86V292.133Z" fill="#09C1DE"/>
<path d="M80 292.133H86V297.6H80V292.133Z" fill="#365969"/>
<path d="M110 297.6H116V303.067H110V297.6Z" fill="#365969"/>
<path d="M104 297.6H110V303.067H104V297.6Z" fill="#0098AF"/>
<path d="M98 297.6H104V303.067H98V297.6Z" fill="#09C1DE"/>
<path d="M92 297.6H98V303.067H92V297.6Z" fill="#66EAFF"/>
<path d="M86 297.6H92V303.067H86V297.6Z" fill="#09C1DE"/>
<path d="M80 297.6H86V303.067H80V297.6Z" fill="#365969"/>
<path d="M110 303.067H116V308.533H110V303.067Z" fill="#365969"/>
<path d="M104 303.067H110V308.533H104V303.067Z" fill="#0098AF"/>
<path d="M98 303.067H104V308.533H98V303.067Z" fill="#09C1DE"/>
<path d="M92 303.067H98V308.533H92V303.067Z" fill="#66EAFF"/>
<path d="M86 303.067H92V308.533H86V303.067Z" fill="#09C1DE"/>
<path d="M80 303.067H86V308.533H80V303.067Z" fill="#365969"/>
<path d="M110 308.533H116V314H110V308.533Z" fill="#365969"/>
<path d="M104 308.533H110V314H104V308.533Z" fill="#0098AF"/>
<path d="M98 308.533H104V314H98V308.533Z" fill="#09C1DE"/>
<path d="M92 308.533H98V314H92V308.533Z" fill="#66EAFF"/>
<path d="M86 308.533H92V314H86V308.533Z" fill="#09C1DE"/>
<path d="M80 308.533H86V314H80V308.533Z" fill="#365969"/>
</g>
<path d="M116 214H122V220H116V214Z" fill="#365969"/>
<path d="M110 214H116V220H110V214Z" fill="#365969"/>
<path d="M104 214H110V220H104V214Z" fill="#365969"/>
<path d="M98 214H104V220H98V214Z" fill="#365969"/>
<path d="M92 214H98V220H92V214Z" fill="#365969"/>
<path d="M86 214H92V220H86V214Z" fill="#365969"/>
<path d="M80 214H86V220H80V214Z" fill="#365969"/>
<path d="M74 214H80V220H74V214Z" fill="#365969"/>
<path d="M116 220H122V226H116V220Z" fill="#365969"/>
<path d="M110 220H116V226H110V220Z" fill="#0098AF"/>
<path d="M104 220H110V226H104V220Z" fill="#09C1DE"/>
<path d="M98 220H104V226H98V220Z" fill="#66EAFF"/>
<path d="M92 220H98V226H92V220Z" fill="#66EAFF"/>
<path d="M86 220H92V226H86V220Z" fill="#66EAFF"/>
<path d="M80 220H86V226H80V220Z" fill="#09C1DE"/>
<path d="M74 220H80V226H74V220Z" fill="#365969"/>
<path d="M116 226H122V232H116V226Z" fill="#365969"/>
<path d="M110 226H116V232H110V226Z" fill="#365969"/>
<path d="M104 226H110V232H104V226Z" fill="#365969"/>
<path d="M98 226H104V232H98V226Z" fill="#365969"/>
<path d="M92 226H98V232H92V226Z" fill="#365969"/>
<path d="M86 226H92V232H86V226Z" fill="#365969"/>
<path d="M80 226H86V232H80V226Z" fill="#365969"/>
<path d="M74 226H80V232H74V226Z" fill="#365969"/>
<g filter="url(#filter0_d_1590_180722)">
<path d="M133 8.61538V4H89L85 7.33333V33.5833L89 37.3333L93.2144 40.6667L97 44H101L105 40.6667L107.261 36.3077H133V31.6923V8.61538Z" fill="white"/>
<path d="M129 0H202V4H129V0Z" fill="#00CCEC"/>
<path d="M129 4H202V8H129V4Z" fill="white"/>
<path d="M129 8H202V12H129V8Z" fill="white"/>
<path d="M129 12H202V16H129V12Z" fill="white"/>
<path d="M129 16H202V20H129V16Z" fill="white"/>
<path d="M129 24H202V28H129V24Z" fill="white"/>
<path d="M129 20H202V24H129V20Z" fill="white"/>
<path d="M129 28H202V32H129V28Z" fill="white"/>
<path d="M129 32H202V36H129V32Z" fill="white"/>
<path d="M85 29H158V33H85V29Z" fill="white"/>
<path d="M105 33H237V37H105V33Z" fill="white"/>
<path d="M158 32H162V36H158V32Z" fill="white"/>
<path d="M129 40H202V36H129V40Z" fill="#00CCEC"/>
<path d="M125 0H129V4H125V0Z" fill="#00CCEC"/>
<path d="M125 40H129V36H125V40Z" fill="#00CCEC"/>
<path d="M121 0H125V4H121V0Z" fill="#00CCEC"/>
<path d="M121 40H125V36H121V40Z" fill="#00CCEC"/>
<path d="M117 0H121V4H117V0Z" fill="#00CCEC"/>
<path d="M117 40H121V36H117V40Z" fill="#00CCEC"/>
<path d="M113 0H117V4H113V0Z" fill="#00CCEC"/>
<path d="M113 40H117V36H113V40Z" fill="#00CCEC"/>
<path d="M109 0H113V4H109V0Z" fill="#00CCEC"/>
<path d="M109 40H113V36H109V40Z" fill="#00CCEC"/>
<path d="M105 0H109V4H105V0Z" fill="#00CCEC"/>
<path d="M105 40H109V36H105V40Z" fill="#00CCEC"/>
<path d="M101 0H105V4H101V0Z" fill="#00CCEC"/>
<path d="M101 44H105V40H101V44Z" fill="#00CCEC"/>
<path d="M97 0H101V4H97V0Z" fill="#00CCEC"/>
<path d="M97 48H101V44H97V48Z" fill="#00CCEC"/>
<path d="M93 0H97V4H93V0Z" fill="#00CCEC"/>
<path d="M93 44H97V40H93V44Z" fill="#00CCEC"/>
<path d="M89 0H93V4H89V0Z" fill="#00CCEC"/>
<path d="M89 40H93V36H89V40Z" fill="#00CCEC"/>
<path d="M85 4H89V8H85V4Z" fill="#00CCEC"/>
<path d="M85 36H89V32H85V36Z" fill="#00CCEC"/>
<path d="M81 8H85V12H81V8Z" fill="#00CCEC"/>
<path d="M81 12H85V29H81V12Z" fill="#00CCEC"/>
<path d="M81 28H85V32H81V28Z" fill="#00CCEC"/>
<path d="M271 8.625V4L319 4V8.31667V32.8L315 36H305.906H301.292H296.739H271V31.375V8.625Z" fill="white"/>
<path d="M275 4H202V8H275V4Z" fill="white"/>
<path d="M315 4H220V8H315V4Z" fill="white"/>
<path d="M275 8H202V12H275V8Z" fill="white"/>
<path d="M275 12H202V16H275V12Z" fill="white"/>
<path d="M275 16H202V20H275V16Z" fill="white"/>
<path d="M275 24H202V28H275V24Z" fill="white"/>
<path d="M275 20H202V24H275V20Z" fill="white"/>
<path d="M275 28H202V32H275V28Z" fill="white"/>
<path d="M275 31.6667H202V36.6667H275V31.6667Z" fill="white"/>
<path d="M275 0H202V4H275V0Z" fill="#00CCEC"/>
<path d="M275 40H202V36H275V40Z" fill="#00CCEC"/>
<path d="M279 0H275V4H279V0Z" fill="#00CCEC"/>
<path d="M279 40H275V36H279V40Z" fill="#00CCEC"/>
<path d="M283 0H279V4H283V0Z" fill="#00CCEC"/>
<path d="M283 40H279V36H283V40Z" fill="#00CCEC"/>
<path d="M287 0H283V4H287V0Z" fill="#00CCEC"/>
<path d="M287 40H283V36H287V40Z" fill="#00CCEC"/>
<path d="M291 0H287V4H291V0Z" fill="#00CCEC"/>
<path d="M291 40H287V36H291V40Z" fill="#00CCEC"/>
<path d="M295 0H291V4H295V0Z" fill="#00CCEC"/>
<path d="M295 40H291V36H295V40Z" fill="#00CCEC"/>
<path d="M299 0H295V4H299V0Z" fill="#00CCEC"/>
<path d="M299 40H295V36H299V40Z" fill="#00CCEC"/>
<path d="M303 0H299V4H303V0Z" fill="#00CCEC"/>
<path d="M303 40H299V36H303V40Z" fill="#00CCEC"/>
<path d="M307 0H303V4H307V0Z" fill="#00CCEC"/>
<path d="M307 40H303V36H307V40Z" fill="#00CCEC"/>
<path d="M311 0H307V4H311V0Z" fill="#00CCEC"/>
<path d="M311 40H307V36H311V40Z" fill="#00CCEC"/>
<path d="M315 0H311V4H315V0Z" fill="#00CCEC"/>
<path d="M315 40H311V36H315V40Z" fill="#00CCEC"/>
<path d="M319 4H315V8H319V4Z" fill="#00CCEC"/>
<path d="M319 36H315V32H319V36Z" fill="#00CCEC"/>
<path d="M323 8H319V12H323V8Z" fill="#00CCEC"/>
<path d="M323 12H319V16H323V12Z" fill="#00CCEC"/>
<path d="M323 16H319V20H323V16Z" fill="#00CCEC"/>
<path d="M323 20H319V24H323V20Z" fill="#00CCEC"/>
<path d="M323 24H319V28H323V24Z" fill="#00CCEC"/>
<path d="M323 28H319V32H323V28Z" fill="#00CCEC"/>
<path d="M95 13.1429H96.2857V14.4286H95V13.1429ZM96.2857 13.1429H97.5714V14.4286H96.2857V13.1429ZM96.2857 14.4286H97.5714V15.7143H96.2857V14.4286ZM96.2857 15.7143H97.5714V17H96.2857V15.7143ZM96.2857 17H97.5714V18.2857H96.2857V17ZM95 17H96.2857V18.2857H95V17ZM95 15.7143H96.2857V17H95V15.7143ZM95 14.4286H96.2857V15.7143H95V14.4286ZM95 18.2857H96.2857V19.5714H95V18.2857ZM95 19.5714H96.2857V20.8571H95V19.5714ZM95 20.8571H96.2857V22.1429H95V20.8571ZM96.2857 19.5714H97.5714V20.8571H96.2857V19.5714ZM96.2857 18.2857H97.5714V19.5714H96.2857V18.2857ZM96.2857 20.8571H97.5714V22.1429H96.2857V20.8571ZM96.2857 22.1429H97.5714V23.4286H96.2857V22.1429ZM95 23.4286H96.2857V24.7143H95V23.4286ZM95 22.1429H96.2857V23.4286H95V22.1429ZM95 24.7143H96.2857V26H95V24.7143ZM96.2857 24.7143H97.5714V26H96.2857V24.7143ZM96.2857 23.4286H97.5714V24.7143H96.2857V23.4286ZM97.5714 24.7143H98.8571V26H97.5714V24.7143ZM98.8571 24.7143H100.143V26H98.8571V24.7143ZM100.143 24.7143H101.429V26H100.143V24.7143ZM100.143 23.4286H101.429V24.7143H100.143V23.4286ZM98.8571 23.4286H100.143V24.7143H98.8571V23.4286ZM97.5714 23.4286H98.8571V24.7143H97.5714V23.4286ZM97.5714 13.1429H98.8571V14.4286H97.5714V13.1429ZM98.8571 13.1429H100.143V14.4286H98.8571V13.1429ZM100.143 13.1429H101.429V14.4286H100.143V13.1429ZM101.429 13.1429H102.714V14.4286H101.429V13.1429ZM100.143 14.4286H101.429V15.7143H100.143V14.4286ZM98.8571 14.4286H100.143V15.7143H98.8571V14.4286ZM97.5714 14.4286H98.8571V15.7143H97.5714V14.4286ZM97.5714 19.5714H98.8571V20.8571H97.5714V19.5714ZM98.8571 18.2857H100.143V19.5714H98.8571V18.2857ZM97.5714 18.2857H98.8571V19.5714H97.5714V18.2857ZM98.8571 19.5714H100.143V20.8571H98.8571V19.5714ZM101.429 14.4286H102.714V15.7143H101.429V14.4286ZM101.429 23.4286H102.714V24.7143H101.429V23.4286ZM101.429 24.7143H102.714V26H101.429V24.7143ZM100.143 18.2857H101.429V19.5714H100.143V18.2857ZM100.143 19.5714H101.429V20.8571H100.143V19.5714ZM109.383 23.4286H110.669V24.7143H109.383V23.4286ZM109.383 24.7143H110.669V26H109.383V24.7143ZM108.097 24.7143H109.383V26H108.097V24.7143ZM108.097 23.4286H109.383V24.7143H108.097V23.4286ZM106.811 24.7143H108.097V26H106.811V24.7143ZM106.811 23.4286H108.097V24.7143H106.811V23.4286ZM105.526 23.4286H106.811V24.7143H105.526V23.4286ZM105.526 22.1429H106.811V23.4286H105.526V22.1429ZM105.526 20.8571H106.811V22.1429H105.526V20.8571ZM105.526 19.5714H106.811V20.8571H105.526V19.5714ZM105.526 18.2857H106.811V19.5714H105.526V18.2857ZM105.526 17H106.811V18.2857H105.526V17ZM106.811 20.8571H108.097V22.1429H106.811V20.8571ZM106.811 22.1429H108.097V23.4286H106.811V22.1429ZM106.811 19.5714H108.097V20.8571H106.811V19.5714ZM106.811 18.2857H108.097V19.5714H106.811V18.2857ZM106.811 13.1429H108.097V14.4286H106.811V13.1429ZM106.811 14.4286H108.097V15.7143H106.811V14.4286ZM106.811 15.7143H108.097V17H106.811V15.7143ZM106.811 17H108.097V18.2857H106.811V17ZM105.526 15.7143H106.811V17H105.526V15.7143ZM104.24 17H105.526V18.2857H104.24V17ZM108.097 17H109.383V18.2857H108.097V17ZM109.383 17H110.669V18.2857H109.383V17ZM105.526 14.4286H106.811V15.7143H105.526V14.4286ZM104.24 18.2857H105.526V19.5714H104.24V18.2857ZM108.097 18.2857H109.383V19.5714H108.097V18.2857ZM109.383 18.2857H110.669V19.5714H109.383V18.2857ZM112.191 17H113.477V18.2857H112.191V17ZM112.191 15.7143H113.477V17H112.191V15.7143ZM113.477 15.7143H114.762V17H113.477V15.7143ZM113.477 17H114.762V18.2857H113.477V17ZM113.477 18.2857H114.762V19.5714H113.477V18.2857ZM113.477 19.5714H114.762V20.8571H113.477V19.5714ZM113.477 20.8571H114.762V22.1429H113.477V20.8571ZM112.191 20.8571H113.477V22.1429H112.191V20.8571ZM112.191 19.5714H113.477V20.8571H112.191V19.5714ZM112.191 18.2857H113.477V19.5714H112.191V18.2857ZM112.191 22.1429H113.477V23.4286H112.191V22.1429ZM113.477 22.1429H114.762V23.4286H113.477V22.1429ZM113.477 23.4286H114.762V24.7143H113.477V23.4286ZM113.477 24.7143H114.762V26H113.477V24.7143ZM112.191 24.7143H113.477V26H112.191V24.7143ZM112.191 23.4286H113.477V24.7143H112.191V23.4286ZM118.62 24.7143H119.905V26H118.62V24.7143ZM119.905 24.7143H121.191V26H119.905V24.7143ZM119.905 23.4286H121.191V24.7143H119.905V23.4286ZM119.905 22.1429H121.191V23.4286H119.905V22.1429ZM119.905 20.8571H121.191V22.1429H119.905V20.8571ZM119.905 19.5714H121.191V20.8571H119.905V19.5714ZM119.905 18.2857H121.191V19.5714H119.905V18.2857ZM119.905 17H121.191V18.2857H119.905V17ZM118.62 19.5714H119.905V20.8571H118.62V19.5714ZM118.62 20.8571H119.905V22.1429H118.62V20.8571ZM118.62 22.1429H119.905V23.4286H118.62V22.1429ZM118.62 23.4286H119.905V24.7143H118.62V23.4286ZM118.62 18.2857H119.905V19.5714H118.62V18.2857ZM114.762 17H116.048V18.2857H114.762V17ZM116.048 17H117.334V18.2857H116.048V17ZM117.334 17H118.62V18.2857H117.334V17ZM117.334 15.7143H118.62V17H117.334V15.7143ZM118.62 15.7143H119.905V17H118.62V15.7143ZM118.62 17H119.905V18.2857H118.62V17ZM116.048 15.7143H117.334V17H116.048V15.7143ZM112.191 13.1429H113.477V14.4286H112.191V13.1429ZM113.477 13.1429H114.762V14.4286H113.477V13.1429ZM113.477 14.4286H114.762V15.7143H113.477V14.4286ZM112.191 14.4286H113.477V15.7143H112.191V14.4286ZM125.291 15.7143H126.577V17H125.291V15.7143ZM124.006 15.7143H125.291V17H124.006V15.7143ZM124.006 17H125.291V18.2857H124.006V17ZM125.291 17H126.577V18.2857H125.291V17ZM126.577 15.7143H127.863V17H126.577V15.7143ZM127.863 15.7143H129.149V17H127.863V15.7143ZM129.149 15.7143H130.434V17H129.149V15.7143ZM129.149 17H130.434V18.2857H129.149V17ZM127.863 17H129.149V18.2857H127.863V17ZM130.434 17H131.72V18.2857H130.434V17ZM130.434 18.2857H131.72V19.5714H130.434V18.2857ZM130.434 23.4286H131.72V24.7143H130.434V23.4286ZM129.149 23.4286H130.434V24.7143H129.149V23.4286ZM129.149 18.2857H130.434V19.5714H129.149V18.2857ZM127.863 23.4286H129.149V24.7143H127.863V23.4286ZM129.149 24.7143H130.434V26H129.149V24.7143ZM127.863 24.7143H129.149V26H127.863V24.7143ZM126.577 24.7143H127.863V26H126.577V24.7143ZM125.291 24.7143H126.577V26H125.291V24.7143ZM124.006 24.7143H125.291V26H124.006V24.7143ZM124.006 23.4286H125.291V24.7143H124.006V23.4286ZM125.291 23.4286H126.577V24.7143H125.291V23.4286ZM124.006 22.1429H125.291V23.4286H124.006V22.1429ZM122.72 23.4286H124.006V24.7143H122.72V23.4286ZM122.72 22.1429H124.006V23.4286H122.72V22.1429ZM122.72 20.8571H124.006V22.1429H122.72V20.8571ZM122.72 19.5714H124.006V20.8571H122.72V19.5714ZM122.72 18.2857H124.006V19.5714H122.72V18.2857ZM122.72 17H124.006V18.2857H122.72V17ZM124.006 18.2857H125.291V19.5714H124.006V18.2857ZM124.006 19.5714H125.291V20.8571H124.006V19.5714ZM124.006 20.8571H125.291V22.1429H124.006V20.8571ZM126.577 23.4286H127.863V24.7143H126.577V23.4286ZM126.577 17H127.863V18.2857H126.577V17ZM129.149 19.5714H130.434V20.8571H129.149V19.5714ZM130.434 19.5714H131.72V20.8571H130.434V19.5714ZM125.291 20.8571H126.577V22.1429H125.291V20.8571ZM126.577 20.8571H127.863V22.1429H126.577V20.8571ZM127.863 20.8571H129.149V22.1429H127.863V20.8571ZM129.149 20.8571H130.434V22.1429H129.149V20.8571ZM130.434 20.8571H131.72V22.1429H130.434V20.8571ZM127.863 19.5714H129.149V20.8571H127.863V19.5714ZM126.577 19.5714H127.863V20.8571H126.577V19.5714ZM125.291 19.5714H126.577V20.8571H125.291V19.5714ZM133.249 17H134.535V18.2857H133.249V17ZM133.249 15.7143H134.535V17H133.249V15.7143ZM134.535 15.7143H135.82V17H134.535V15.7143ZM134.535 17H135.82V18.2857H134.535V17ZM134.535 18.2857H135.82V19.5714H134.535V18.2857ZM134.535 19.5714H135.82V20.8571H134.535V19.5714ZM134.535 20.8571H135.82V22.1429H134.535V20.8571ZM133.249 20.8571H134.535V22.1429H133.249V20.8571ZM133.249 19.5714H134.535V20.8571H133.249V19.5714ZM133.249 18.2857H134.535V19.5714H133.249V18.2857ZM133.249 22.1429H134.535V23.4286H133.249V22.1429ZM134.535 22.1429H135.82V23.4286H134.535V22.1429ZM134.535 23.4286H135.82V24.7143H134.535V23.4286ZM134.535 24.7143H135.82V26H134.535V24.7143ZM133.249 24.7143H134.535V26H133.249V24.7143ZM133.249 23.4286H134.535V24.7143H133.249V23.4286ZM135.82 17H137.106V18.2857H135.82V17ZM137.106 17H138.392V18.2857H137.106V17ZM138.392 17H139.678V18.2857H138.392V17ZM138.392 15.7143H139.678V17H138.392V15.7143ZM137.106 15.7143H138.392V17H137.106V15.7143ZM135.82 18.2857H137.106V19.5714H135.82V18.2857ZM139.678 17H140.963V18.2857H139.678V17ZM138.392 18.2857H139.678V19.5714H138.392V18.2857ZM145.06 15.7143H146.346V17H145.06V15.7143ZM143.775 15.7143H145.06V17H143.775V15.7143ZM143.775 17H145.06V18.2857H143.775V17ZM145.06 17H146.346V18.2857H145.06V17ZM146.346 15.7143H147.632V17H146.346V15.7143ZM147.632 15.7143H148.918V17H147.632V15.7143ZM148.918 15.7143H150.203V17H148.918V15.7143ZM148.918 17H150.203V18.2857H148.918V17ZM147.632 17H148.918V18.2857H147.632V17ZM150.203 17H151.489V18.2857H150.203V17ZM150.203 18.2857H151.489V19.5714H150.203V18.2857ZM150.203 23.4286H151.489V24.7143H150.203V23.4286ZM148.918 23.4286H150.203V24.7143H148.918V23.4286ZM148.918 18.2857H150.203V19.5714H148.918V18.2857ZM147.632 23.4286H148.918V24.7143H147.632V23.4286ZM148.918 24.7143H150.203V26H148.918V24.7143ZM147.632 24.7143H148.918V26H147.632V24.7143ZM146.346 24.7143H147.632V26H146.346V24.7143ZM145.06 24.7143H146.346V26H145.06V24.7143ZM143.775 24.7143H145.06V26H143.775V24.7143ZM143.775 23.4286H145.06V24.7143H143.775V23.4286ZM145.06 23.4286H146.346V24.7143H145.06V23.4286ZM143.775 22.1429H145.06V23.4286H143.775V22.1429ZM142.489 23.4286H143.775V24.7143H142.489V23.4286ZM142.489 22.1429H143.775V23.4286H142.489V22.1429ZM142.489 20.8571H143.775V22.1429H142.489V20.8571ZM142.489 19.5714H143.775V20.8571H142.489V19.5714ZM142.489 18.2857H143.775V19.5714H142.489V18.2857ZM142.489 17H143.775V18.2857H142.489V17ZM143.775 18.2857H145.06V19.5714H143.775V18.2857ZM143.775 19.5714H145.06V20.8571H143.775V19.5714ZM143.775 20.8571H145.06V22.1429H143.775V20.8571ZM146.346 23.4286H147.632V24.7143H146.346V23.4286ZM146.346 17H147.632V18.2857H146.346V17ZM148.918 19.5714H150.203V20.8571H148.918V19.5714ZM150.203 19.5714H151.489V20.8571H150.203V19.5714ZM145.06 20.8571H146.346V22.1429H145.06V20.8571ZM146.346 20.8571H147.632V22.1429H146.346V20.8571ZM147.632 20.8571H148.918V22.1429H147.632V20.8571ZM148.918 20.8571H150.203V22.1429H148.918V20.8571ZM150.203 20.8571H151.489V22.1429H150.203V20.8571ZM147.632 19.5714H148.918V20.8571H147.632V19.5714ZM146.346 19.5714H147.632V20.8571H146.346V19.5714ZM145.06 19.5714H146.346V20.8571H145.06V19.5714ZM162.018 24.7143H160.732V23.4286H162.018V24.7143ZM162.018 26H160.732V24.7143H162.018V26ZM160.732 26H159.447V24.7143H160.732V26ZM160.732 24.7143H159.447V23.4286H160.732V24.7143ZM160.732 23.4286H159.447V22.1429H160.732V23.4286ZM160.732 22.1429H159.447V20.8571H160.732V22.1429ZM160.732 20.8571H159.447V19.5714H160.732V20.8571ZM162.018 20.8571H160.732V19.5714H162.018V20.8571ZM162.018 22.1429H160.732V20.8571H162.018V22.1429ZM162.018 23.4286H160.732V22.1429H162.018V23.4286ZM162.018 19.5714H160.732V18.2857H162.018V19.5714ZM160.732 19.5714H159.447V18.2857H160.732V19.5714ZM160.732 18.2857H159.447V17H160.732V18.2857ZM160.732 17H159.447V15.7143H160.732V17ZM162.018 17H160.732V15.7143H162.018V17ZM162.018 18.2857H160.732V17H162.018V18.2857ZM155.59 17H154.304V15.7143H155.59V17ZM154.304 17H153.018V15.7143H154.304V17ZM154.304 18.2857H153.018V17H154.304V18.2857ZM154.304 19.5714H153.018V18.2857H154.304V19.5714ZM154.304 20.8571H153.018V19.5714H154.304V20.8571ZM154.304 22.1429H153.018V20.8571H154.304V22.1429ZM154.304 23.4286H153.018V22.1429H154.304V23.4286ZM154.304 24.7143H153.018V23.4286H154.304V24.7143ZM155.59 22.1429H154.304V20.8571H155.59V22.1429ZM155.59 20.8571H154.304V19.5714H155.59V20.8571ZM155.59 19.5714H154.304V18.2857H155.59V19.5714ZM155.59 18.2857H154.304V17H155.59V18.2857ZM155.59 23.4286H154.304V22.1429H155.59V23.4286ZM159.447 24.7143H158.161V23.4286H159.447V24.7143ZM158.161 24.7143H156.875V23.4286H158.161V24.7143ZM156.875 24.7143H155.59V23.4286H156.875V24.7143ZM156.875 26H155.59V24.7143H156.875V26ZM155.59 26H154.304V24.7143H155.59V26ZM155.59 24.7143H154.304V23.4286H155.59V24.7143ZM158.161 26H156.875V24.7143H158.161V26ZM163.547 17H164.833V18.2857H163.547V17ZM163.547 15.7143H164.833V17H163.547V15.7143ZM164.833 15.7143H166.119V17H164.833V15.7143ZM164.833 17H166.119V18.2857H164.833V17ZM164.833 18.2857H166.119V19.5714H164.833V18.2857ZM164.833 19.5714H166.119V20.8571H164.833V19.5714ZM164.833 20.8571H166.119V22.1429H164.833V20.8571ZM163.547 20.8571H164.833V22.1429H163.547V20.8571ZM163.547 19.5714H164.833V20.8571H163.547V19.5714ZM163.547 18.2857H164.833V19.5714H163.547V18.2857ZM163.547 22.1429H164.833V23.4286H163.547V22.1429ZM164.833 22.1429H166.119V23.4286H164.833V22.1429ZM164.833 23.4286H166.119V24.7143H164.833V23.4286ZM164.833 24.7143H166.119V26H164.833V24.7143ZM163.547 24.7143H164.833V26H163.547V24.7143ZM163.547 23.4286H164.833V24.7143H163.547V23.4286ZM168.69 24.7143H169.976V26H168.69V24.7143ZM169.976 24.7143H171.261V26H169.976V24.7143ZM169.976 23.4286H171.261V24.7143H169.976V23.4286ZM169.976 22.1429H171.261V23.4286H169.976V22.1429ZM169.976 20.8571H171.261V22.1429H169.976V20.8571ZM169.976 19.5714H171.261V20.8571H169.976V19.5714ZM169.976 18.2857H171.261V19.5714H169.976V18.2857ZM169.976 17H171.261V18.2857H169.976V17ZM168.69 19.5714H169.976V20.8571H168.69V19.5714ZM168.69 20.8571H169.976V22.1429H168.69V20.8571ZM168.69 22.1429H169.976V23.4286H168.69V22.1429ZM168.69 23.4286H169.976V24.7143H168.69V23.4286ZM168.69 18.2857H169.976V19.5714H168.69V18.2857ZM166.119 17H167.404V18.2857H166.119V17ZM167.404 17H168.69V18.2857H167.404V17ZM168.69 15.7143H169.976V17H168.69V15.7143ZM168.69 17H169.976V18.2857H168.69V17ZM167.404 15.7143H168.69V17H167.404V15.7143ZM173.833 24.7143H175.119V26H173.833V24.7143ZM175.119 24.7143H176.404V26H175.119V24.7143ZM175.119 23.4286H176.404V24.7143H175.119V23.4286ZM175.119 22.1429H176.404V23.4286H175.119V22.1429ZM175.119 20.8571H176.404V22.1429H175.119V20.8571ZM175.119 19.5714H176.404V20.8571H175.119V19.5714ZM175.119 18.2857H176.404V19.5714H175.119V18.2857ZM175.119 17H176.404V18.2857H175.119V17ZM173.833 19.5714H175.119V20.8571H173.833V19.5714ZM173.833 20.8571H175.119V22.1429H173.833V20.8571ZM173.833 22.1429H175.119V23.4286H173.833V22.1429ZM173.833 23.4286H175.119V24.7143H173.833V23.4286ZM173.833 18.2857H175.119V19.5714H173.833V18.2857ZM171.261 17H172.547V18.2857H171.261V17ZM172.547 17H173.833V18.2857H172.547V17ZM173.833 15.7143H175.119V17H173.833V15.7143ZM173.833 17H175.119V18.2857H173.833V17ZM172.547 15.7143H173.833V17H172.547V15.7143ZM188.436 23.4286H189.721V24.7143H188.436V23.4286ZM188.436 24.7143H189.721V26H188.436V24.7143ZM187.15 24.7143H188.436V26H187.15V24.7143ZM187.15 23.4286H188.436V24.7143H187.15V23.4286ZM185.864 24.7143H187.15V26H185.864V24.7143ZM185.864 23.4286H187.15V24.7143H185.864V23.4286ZM184.579 23.4286H185.864V24.7143H184.579V23.4286ZM184.579 22.1429H185.864V23.4286H184.579V22.1429ZM184.579 20.8571H185.864V22.1429H184.579V20.8571ZM184.579 19.5714H185.864V20.8571H184.579V19.5714ZM184.579 18.2857H185.864V19.5714H184.579V18.2857ZM184.579 17H185.864V18.2857H184.579V17ZM185.864 20.8571H187.15V22.1429H185.864V20.8571ZM185.864 22.1429H187.15V23.4286H185.864V22.1429ZM185.864 19.5714H187.15V20.8571H185.864V19.5714ZM185.864 18.2857H187.15V19.5714H185.864V18.2857ZM185.864 13.1429H187.15V14.4286H185.864V13.1429ZM185.864 14.4286H187.15V15.7143H185.864V14.4286ZM185.864 15.7143H187.15V17H185.864V15.7143ZM185.864 17H187.15V18.2857H185.864V17ZM184.579 15.7143H185.864V17H184.579V15.7143ZM183.293 17H184.579V18.2857H183.293V17ZM187.15 17H188.436V18.2857H187.15V17ZM188.436 17H189.721V18.2857H188.436V17ZM184.579 14.4286H185.864V15.7143H184.579V14.4286ZM183.293 18.2857H184.579V19.5714H183.293V18.2857ZM187.15 18.2857H188.436V19.5714H187.15V18.2857ZM188.436 18.2857H189.721V19.5714H188.436V18.2857ZM191.244 17H192.529V18.2857H191.244V17ZM191.244 15.7143H192.529V17H191.244V15.7143ZM192.529 15.7143H193.815V17H192.529V15.7143ZM192.529 17H193.815V18.2857H192.529V17ZM192.529 18.2857H193.815V19.5714H192.529V18.2857ZM192.529 19.5714H193.815V20.8571H192.529V19.5714ZM192.529 20.8571H193.815V22.1429H192.529V20.8571ZM191.244 20.8571H192.529V22.1429H191.244V20.8571ZM191.244 19.5714H192.529V20.8571H191.244V19.5714ZM191.244 18.2857H192.529V19.5714H191.244V18.2857ZM191.244 22.1429H192.529V23.4286H191.244V22.1429ZM192.529 22.1429H193.815V23.4286H192.529V22.1429ZM192.529 23.4286H193.815V24.7143H192.529V23.4286ZM192.529 24.7143H193.815V26H192.529V24.7143ZM191.244 24.7143H192.529V26H191.244V24.7143ZM191.244 23.4286H192.529V24.7143H191.244V23.4286ZM193.815 17H195.101V18.2857H193.815V17ZM195.101 17H196.387V18.2857H195.101V17ZM196.387 17H197.672V18.2857H196.387V17ZM196.387 15.7143H197.672V17H196.387V15.7143ZM195.101 15.7143H196.387V17H195.101V15.7143ZM193.815 18.2857H195.101V19.5714H193.815V18.2857ZM197.672 17H198.958V18.2857H197.672V17ZM196.387 18.2857H197.672V19.5714H196.387V18.2857ZM208.198 26H206.912V24.7143H208.198V26ZM208.198 24.7143H206.912V23.4286H208.198V24.7143ZM206.912 24.7143H205.627V23.4286H206.912V24.7143ZM205.627 26H204.341V24.7143H205.627V26ZM204.341 26H203.055V24.7143H204.341V26ZM203.055 26H201.769V24.7143H203.055V26ZM203.055 24.7143H201.769V23.4286H203.055V24.7143ZM204.341 24.7143H203.055V23.4286H204.341V24.7143ZM201.769 24.7143H200.484V23.4286H201.769V24.7143ZM201.769 23.4286H200.484V22.1429H201.769V23.4286ZM201.769 18.2857H200.484V17H201.769V18.2857ZM203.055 18.2857H201.769V17H203.055V18.2857ZM203.055 23.4286H201.769V22.1429H203.055V23.4286ZM204.341 18.2857H203.055V17H204.341V18.2857ZM203.055 17H201.769V15.7143H203.055V17ZM204.341 17H203.055V15.7143H204.341V17ZM205.627 17H204.341V15.7143H205.627V17ZM206.912 17H205.627V15.7143H206.912V17ZM208.198 17H206.912V15.7143H208.198V17ZM208.198 18.2857H206.912V17H208.198V18.2857ZM206.912 18.2857H205.627V17H206.912V18.2857ZM208.198 19.5714H206.912V18.2857H208.198V19.5714ZM209.484 18.2857H208.198V17H209.484V18.2857ZM209.484 19.5714H208.198V18.2857H209.484V19.5714ZM209.484 20.8571H208.198V19.5714H209.484V20.8571ZM209.484 22.1429H208.198V20.8571H209.484V22.1429ZM209.484 23.4286H208.198V22.1429H209.484V23.4286ZM209.484 24.7143H208.198V23.4286H209.484V24.7143ZM208.198 23.4286H206.912V22.1429H208.198V23.4286ZM208.198 22.1429H206.912V20.8571H208.198V22.1429ZM208.198 20.8571H206.912V19.5714H208.198V20.8571ZM205.627 18.2857H204.341V17H205.627V18.2857ZM205.627 24.7143H204.341V23.4286H205.627V24.7143ZM208.198 24.7143H209.484V26H208.198V24.7143ZM205.627 19.5714H206.912V20.8571H205.627V19.5714ZM204.341 19.5714H205.627V20.8571H204.341V19.5714ZM203.055 19.5714H204.341V20.8571H203.055V19.5714ZM201.769 19.5714H203.055V20.8571H201.769V19.5714ZM200.484 20.8571H201.769V22.1429H200.484V20.8571ZM201.769 20.8571H203.055V22.1429H201.769V20.8571ZM205.627 20.8571H206.912V22.1429H205.627V20.8571ZM204.341 20.8571H205.627V22.1429H204.341V20.8571ZM203.055 20.8571H204.341V22.1429H203.055V20.8571ZM211.013 17H212.299V18.2857H211.013V17ZM211.013 15.7143H212.299V17H211.013V15.7143ZM212.299 15.7143H213.584V17H212.299V15.7143ZM212.299 17H213.584V18.2857H212.299V17ZM212.299 18.2857H213.584V19.5714H212.299V18.2857ZM212.299 19.5714H213.584V20.8571H212.299V19.5714ZM212.299 20.8571H213.584V22.1429H212.299V20.8571ZM211.013 20.8571H212.299V22.1429H211.013V20.8571ZM211.013 19.5714H212.299V20.8571H211.013V19.5714ZM211.013 18.2857H212.299V19.5714H211.013V18.2857ZM211.013 22.1429H212.299V23.4286H211.013V22.1429ZM212.299 22.1429H213.584V23.4286H212.299V22.1429ZM212.299 23.4286H213.584V24.7143H212.299V23.4286ZM212.299 24.7143H213.584V26H212.299V24.7143ZM211.013 24.7143H212.299V26H211.013V24.7143ZM211.013 23.4286H212.299V24.7143H211.013V23.4286ZM217.441 24.7143H218.727V26H217.441V24.7143ZM218.727 24.7143H220.013V26H218.727V24.7143ZM218.727 23.4286H220.013V24.7143H218.727V23.4286ZM218.727 22.1429H220.013V23.4286H218.727V22.1429ZM218.727 20.8571H220.013V22.1429H218.727V20.8571ZM218.727 19.5714H220.013V20.8571H218.727V19.5714ZM218.727 18.2857H220.013V19.5714H218.727V18.2857ZM218.727 17H220.013V18.2857H218.727V17ZM217.441 19.5714H218.727V20.8571H217.441V19.5714ZM217.441 20.8571H218.727V22.1429H217.441V20.8571ZM217.441 22.1429H218.727V23.4286H217.441V22.1429ZM217.441 23.4286H218.727V24.7143H217.441V23.4286ZM217.441 18.2857H218.727V19.5714H217.441V18.2857ZM213.584 17H214.87V18.2857H213.584V17ZM214.87 17H216.156V18.2857H214.87V17ZM216.156 17H217.441V18.2857H216.156V17ZM216.156 15.7143H217.441V17H216.156V15.7143ZM217.441 15.7143H218.727V17H217.441V15.7143ZM217.441 17H218.727V18.2857H217.441V17ZM214.87 15.7143H216.156V17H214.87V15.7143ZM221.542 17H222.828V18.2857H221.542V17ZM222.828 18.2857H224.113V19.5714H222.828V18.2857ZM221.542 18.2857H222.828V19.5714H221.542V18.2857ZM221.542 19.5714H222.828V20.8571H221.542V19.5714ZM222.828 19.5714H224.113V20.8571H222.828V19.5714ZM222.828 20.8571H224.113V22.1429H222.828V20.8571ZM224.113 20.8571H225.399V22.1429H224.113V20.8571ZM225.399 20.8571H226.685V22.1429H225.399V20.8571ZM226.685 19.5714H227.97V20.8571H226.685V19.5714ZM225.399 19.5714H226.685V20.8571H225.399V19.5714ZM224.113 19.5714H225.399V20.8571H224.113V19.5714ZM226.685 20.8571H227.97V22.1429H226.685V20.8571ZM227.97 20.8571H229.256V22.1429H227.97V20.8571ZM227.97 22.1429H229.256V23.4286H227.97V22.1429ZM226.685 22.1429H227.97V23.4286H226.685V22.1429ZM226.685 23.4286H227.97V24.7143H226.685V23.4286ZM227.97 23.4286H229.256V24.7143H227.97V23.4286ZM226.685 24.7143H227.97V26H226.685V24.7143ZM225.399 23.4286H226.685V24.7143H225.399V23.4286ZM224.113 23.4286H225.399V24.7143H224.113V23.4286ZM222.828 23.4286H224.113V24.7143H222.828V23.4286ZM221.542 23.4286H222.828V24.7143H221.542V23.4286ZM222.828 24.7143H224.113V26H222.828V24.7143ZM224.113 24.7143H225.399V26H224.113V24.7143ZM225.399 24.7143H226.685V26H225.399V24.7143ZM227.97 17H229.256V18.2857H227.97V17ZM226.685 17H227.97V18.2857H226.685V17ZM226.685 15.7143H227.97V17H226.685V15.7143ZM225.399 15.7143H226.685V17H225.399V15.7143ZM224.113 15.7143H225.399V17H224.113V15.7143ZM222.828 15.7143H224.113V17H222.828V15.7143ZM222.828 17H224.113V18.2857H222.828V17ZM224.113 17H225.399V18.2857H224.113V17ZM225.399 17H226.685V18.2857H225.399V17ZM238.496 26H237.21V24.7143H238.496V26ZM238.496 24.7143H237.21V23.4286H238.496V24.7143ZM237.21 24.7143H235.925V23.4286H237.21V24.7143ZM235.925 26H234.639V24.7143H235.925V26ZM234.639 26H233.353V24.7143H234.639V26ZM233.353 26H232.068V24.7143H233.353V26ZM233.353 24.7143H232.068V23.4286H233.353V24.7143ZM234.639 24.7143H233.353V23.4286H234.639V24.7143ZM232.068 24.7143H230.782V23.4286H232.068V24.7143ZM232.068 23.4286H230.782V22.1429H232.068V23.4286ZM232.068 18.2857H230.782V17H232.068V18.2857ZM233.353 18.2857H232.068V17H233.353V18.2857ZM233.353 23.4286H232.068V22.1429H233.353V23.4286ZM234.639 18.2857H233.353V17H234.639V18.2857ZM233.353 17H232.068V15.7143H233.353V17ZM234.639 17H233.353V15.7143H234.639V17ZM235.925 17H234.639V15.7143H235.925V17ZM237.21 17H235.925V15.7143H237.21V17ZM238.496 17H237.21V15.7143H238.496V17ZM238.496 18.2857H237.21V17H238.496V18.2857ZM237.21 18.2857H235.925V17H237.21V18.2857ZM238.496 19.5714H237.21V18.2857H238.496V19.5714ZM239.782 18.2857H238.496V17H239.782V18.2857ZM239.782 19.5714H238.496V18.2857H239.782V19.5714ZM239.782 20.8571H238.496V19.5714H239.782V20.8571ZM239.782 22.1429H238.496V20.8571H239.782V22.1429ZM239.782 23.4286H238.496V22.1429H239.782V23.4286ZM239.782 24.7143H238.496V23.4286H239.782V24.7143ZM238.496 23.4286H237.21V22.1429H238.496V23.4286ZM238.496 22.1429H237.21V20.8571H238.496V22.1429ZM238.496 20.8571H237.21V19.5714H238.496V20.8571ZM235.925 18.2857H234.639V17H235.925V18.2857ZM235.925 24.7143H234.639V23.4286H235.925V24.7143ZM238.496 24.7143H239.782V26H238.496V24.7143ZM235.925 19.5714H237.21V20.8571H235.925V19.5714ZM234.639 19.5714H235.925V20.8571H234.639V19.5714ZM233.353 19.5714H234.639V20.8571H233.353V19.5714ZM232.068 19.5714H233.353V20.8571H232.068V19.5714ZM230.782 20.8571H232.068V22.1429H230.782V20.8571ZM232.068 20.8571H233.353V22.1429H232.068V20.8571ZM235.925 20.8571H237.21V22.1429H235.925V20.8571ZM234.639 20.8571H235.925V22.1429H234.639V20.8571ZM233.353 20.8571H234.639V22.1429H233.353V20.8571ZM243.882 15.7143H245.168V17H243.882V15.7143ZM242.597 15.7143H243.882V17H242.597V15.7143ZM242.597 17H243.882V18.2857H242.597V17ZM243.882 17H245.168V18.2857H243.882V17ZM245.168 15.7143H246.454V17H245.168V15.7143ZM246.454 15.7143H247.74V17H246.454V15.7143ZM247.74 15.7143H249.025V17H247.74V15.7143ZM247.74 17H249.025V18.2857H247.74V17ZM246.454 17H247.74V18.2857H246.454V17ZM249.025 17H250.311V18.2857H249.025V17ZM249.025 18.2857H250.311V19.5714H249.025V18.2857ZM249.025 22.1429H250.311V23.4286H249.025V22.1429ZM249.025 23.4286H250.311V24.7143H249.025V23.4286ZM247.74 23.4286H249.025V24.7143H247.74V23.4286ZM247.74 22.1429H249.025V23.4286H247.74V22.1429ZM247.74 18.2857H249.025V19.5714H247.74V18.2857ZM246.454 23.4286H247.74V24.7143H246.454V23.4286ZM247.74 24.7143H249.025V26H247.74V24.7143ZM246.454 24.7143H247.74V26H246.454V24.7143ZM245.168 24.7143H246.454V26H245.168V24.7143ZM243.882 24.7143H245.168V26H243.882V24.7143ZM242.597 24.7143H243.882V26H242.597V24.7143ZM242.597 23.4286H243.882V24.7143H242.597V23.4286ZM243.882 23.4286H245.168V24.7143H243.882V23.4286ZM242.597 22.1429H243.882V23.4286H242.597V22.1429ZM241.311 23.4286H242.597V24.7143H241.311V23.4286ZM241.311 22.1429H242.597V23.4286H241.311V22.1429ZM241.311 20.8571H242.597V22.1429H241.311V20.8571ZM241.311 19.5714H242.597V20.8571H241.311V19.5714ZM241.311 18.2857H242.597V19.5714H241.311V18.2857ZM241.311 17H242.597V18.2857H241.311V17ZM242.597 18.2857H243.882V19.5714H242.597V18.2857ZM242.597 19.5714H243.882V20.8571H242.597V19.5714ZM242.597 20.8571H243.882V22.1429H242.597V20.8571ZM245.168 23.4286H246.454V24.7143H245.168V23.4286ZM245.168 17H246.454V18.2857H245.168V17ZM256.983 23.4286H258.269V24.7143H256.983V23.4286ZM256.983 24.7143H258.269V26H256.983V24.7143ZM255.697 24.7143H256.983V26H255.697V24.7143ZM255.697 23.4286H256.983V24.7143H255.697V23.4286ZM254.411 24.7143H255.697V26H254.411V24.7143ZM254.411 23.4286H255.697V24.7143H254.411V23.4286ZM253.126 23.4286H254.411V24.7143H253.126V23.4286ZM253.126 22.1429H254.411V23.4286H253.126V22.1429ZM253.126 20.8571H254.411V22.1429H253.126V20.8571ZM253.126 19.5714H254.411V20.8571H253.126V19.5714ZM253.126 18.2857H254.411V19.5714H253.126V18.2857ZM253.126 17H254.411V18.2857H253.126V17ZM254.411 20.8571H255.697V22.1429H254.411V20.8571ZM254.411 22.1429H255.697V23.4286H254.411V22.1429ZM254.411 19.5714H255.697V20.8571H254.411V19.5714ZM254.411 18.2857H255.697V19.5714H254.411V18.2857ZM254.411 13.1429H255.697V14.4286H254.411V13.1429ZM254.411 14.4286H255.697V15.7143H254.411V14.4286ZM254.411 15.7143H255.697V17H254.411V15.7143ZM254.411 17H255.697V18.2857H254.411V17ZM253.126 15.7143H254.411V17H253.126V15.7143ZM251.84 17H253.126V18.2857H251.84V17ZM255.697 17H256.983V18.2857H255.697V17ZM256.983 17H258.269V18.2857H256.983V17ZM253.126 14.4286H254.411V15.7143H253.126V14.4286ZM251.84 18.2857H253.126V19.5714H251.84V18.2857ZM255.697 18.2857H256.983V19.5714H255.697V18.2857ZM256.983 18.2857H258.269V19.5714H256.983V18.2857ZM259.791 13.1429H262.362V15.7143H259.791V13.1429ZM259.791 17H262.362V26H259.791V17ZM266.47 15.7143H267.755V17H266.47V15.7143ZM265.184 15.7143H266.47V17H265.184V15.7143ZM265.184 17H266.47V18.2857H265.184V17ZM266.47 17H267.755V18.2857H266.47V17ZM267.755 15.7143H269.041V17H267.755V15.7143ZM269.041 15.7143H270.327V17H269.041V15.7143ZM270.327 15.7143H271.612V17H270.327V15.7143ZM270.327 17H271.612V18.2857H270.327V17ZM269.041 17H270.327V18.2857H269.041V17ZM270.327 19.5714H271.612V20.8571H270.327V19.5714ZM271.612 17H272.898V18.2857H271.612V17ZM271.612 18.2857H272.898V19.5714H271.612V18.2857ZM271.612 19.5714H272.898V20.8571H271.612V19.5714ZM271.612 20.8571H272.898V22.1429H271.612V20.8571ZM271.612 22.1429H272.898V23.4286H271.612V22.1429ZM271.612 23.4286H272.898V24.7143H271.612V23.4286ZM270.327 23.4286H271.612V24.7143H270.327V23.4286ZM270.327 22.1429H271.612V23.4286H270.327V22.1429ZM270.327 20.8571H271.612V22.1429H270.327V20.8571ZM270.327 18.2857H271.612V19.5714H270.327V18.2857ZM269.041 23.4286H270.327V24.7143H269.041V23.4286ZM270.327 24.7143H271.612V26H270.327V24.7143ZM269.041 24.7143H270.327V26H269.041V24.7143ZM267.755 24.7143H269.041V26H267.755V24.7143ZM266.47 24.7143H267.755V26H266.47V24.7143ZM265.184 24.7143H266.47V26H265.184V24.7143ZM265.184 23.4286H266.47V24.7143H265.184V23.4286ZM266.47 23.4286H267.755V24.7143H266.47V23.4286ZM265.184 22.1429H266.47V23.4286H265.184V22.1429ZM263.898 23.4286H265.184V24.7143H263.898V23.4286ZM263.898 22.1429H265.184V23.4286H263.898V22.1429ZM263.898 20.8571H265.184V22.1429H263.898V20.8571ZM263.898 19.5714H265.184V20.8571H263.898V19.5714ZM263.898 18.2857H265.184V19.5714H263.898V18.2857ZM263.898 17H265.184V18.2857H263.898V17ZM265.184 18.2857H266.47V19.5714H265.184V18.2857ZM265.184 19.5714H266.47V20.8571H265.184V19.5714ZM265.184 20.8571H266.47V22.1429H265.184V20.8571ZM267.755 23.4286H269.041V24.7143H267.755V23.4286ZM267.755 17H269.041V18.2857H267.755V17ZM274.427 17H275.713V18.2857H274.427V17ZM274.427 15.7143H275.713V17H274.427V15.7143ZM275.713 15.7143H276.999V17H275.713V15.7143ZM275.713 17H276.999V18.2857H275.713V17ZM275.713 18.2857H276.999V19.5714H275.713V18.2857ZM275.713 19.5714H276.999V20.8571H275.713V19.5714ZM275.713 20.8571H276.999V22.1429H275.713V20.8571ZM274.427 20.8571H275.713V22.1429H274.427V20.8571ZM274.427 19.5714H275.713V20.8571H274.427V19.5714ZM274.427 18.2857H275.713V19.5714H274.427V18.2857ZM274.427 22.1429H275.713V23.4286H274.427V22.1429ZM275.713 22.1429H276.999V23.4286H275.713V22.1429ZM275.713 23.4286H276.999V24.7143H275.713V23.4286ZM275.713 24.7143H276.999V26H275.713V24.7143ZM274.427 24.7143H275.713V26H274.427V24.7143ZM274.427 23.4286H275.713V24.7143H274.427V23.4286ZM280.856 24.7143H282.141V26H280.856V24.7143ZM282.141 24.7143H283.427V26H282.141V24.7143ZM282.141 23.4286H283.427V24.7143H282.141V23.4286ZM282.141 22.1429H283.427V23.4286H282.141V22.1429ZM282.141 20.8571H283.427V22.1429H282.141V20.8571ZM282.141 19.5714H283.427V20.8571H282.141V19.5714ZM282.141 18.2857H283.427V19.5714H282.141V18.2857ZM282.141 17H283.427V18.2857H282.141V17ZM280.856 19.5714H282.141V20.8571H280.856V19.5714ZM280.856 20.8571H282.141V22.1429H280.856V20.8571ZM280.856 22.1429H282.141V23.4286H280.856V22.1429ZM280.856 23.4286H282.141V24.7143H280.856V23.4286ZM280.856 18.2857H282.141V19.5714H280.856V18.2857ZM276.999 17H278.284V18.2857H276.999V17ZM278.284 17H279.57V18.2857H278.284V17ZM279.57 17H280.856V18.2857H279.57V17ZM279.57 15.7143H280.856V17H279.57V15.7143ZM280.856 15.7143H282.141V17H280.856V15.7143ZM280.856 17H282.141V18.2857H280.856V17ZM278.284 15.7143H279.57V17H278.284V15.7143Z" fill="#00CCEC"/>
<path fill-rule="evenodd" clip-rule="evenodd" d="M307 19H291V21H307V19Z" fill="#00CCEC" stroke="#00CCEC"/>
<path fill-rule="evenodd" clip-rule="evenodd" d="M305 17H303V19H305V17Z" fill="#00CCEC" stroke="#00CCEC"/>
<path fill-rule="evenodd" clip-rule="evenodd" d="M305 21H303V23H305V21Z" fill="#00CCEC" stroke="#00CCEC"/>
<path fill-rule="evenodd" clip-rule="evenodd" d="M303 15H301V17H303V15Z" fill="#00CCEC" stroke="#00CCEC"/>
<path fill-rule="evenodd" clip-rule="evenodd" d="M303 23H301V25H303V23Z" fill="#00CCEC" stroke="#00CCEC"/>
<path fill-rule="evenodd" clip-rule="evenodd" d="M301 13H299V15H301V13Z" fill="#00CCEC" stroke="#00CCEC"/>
<path fill-rule="evenodd" clip-rule="evenodd" d="M301 25H299V27H301V25Z" fill="#00CCEC" stroke="#00CCEC"/>
</g>
<path d="M89.374 216.958C88.5134 216.271 87.7675 215.299 87.3945 214.269C85.7593 210.093 89.2019 205.116 91.0953 201.598C92.0994 199.682 93.0462 197.737 93.9355 195.763L95.5134 199.481C97.4642 203.972 101.739 209.349 99.6732 214.441C99.0134 216.042 97.9806 217.244 96.3453 217.902C94.6814 218.588 92.5584 218.617 90.8658 217.902C90.3207 217.673 89.8043 217.33 89.374 216.958Z" fill="#00C1DF"/>
<path d="M89.3739 216.958L89.6608 216.7C90.6362 217.072 91.5255 217.33 92.587 217.387C94.1649 217.473 96.5173 217.444 97.7223 216.243C98.4969 215.47 98.6403 214.412 98.5829 213.354C98.5255 212.553 98.296 212.41 97.7223 211.952L97.378 212.067C97.2919 212.639 97.2633 213.154 96.9477 213.64L96.4887 213.554C95.7714 212.238 96.7469 210.694 96.5747 209.292C96.2878 207.061 94.9395 204.83 94.5378 202.542C94.3657 201.541 94.4231 200.397 95.0255 199.539H95.4846C97.4354 204.001 101.71 209.378 99.6444 214.441C98.9846 216.042 97.9518 217.244 96.3165 217.902C94.6526 218.588 92.5296 218.617 90.837 217.902C90.2919 217.673 89.7755 217.33 89.3452 216.958H89.3739Z" fill="#66EAFF"/>
<path d="M91.87 202.199L92.4151 202.628C92.9315 204.287 93.0175 206.089 92.5011 207.748C92.2143 208.692 91.87 209.035 90.9806 209.493C90.6077 209.121 90.2347 208.692 90.0626 208.177C89.4602 206.289 90.952 203.801 91.87 202.199Z" fill="#66EAFF"/>
<path d="M91.8126 213.182C92.3864 213.154 92.9888 213.096 93.5626 213.125C94.2224 213.154 94.5954 213.211 95.0257 213.697C94.8823 214.469 94.1938 214.87 93.6487 215.356C92.6446 215.556 91.4683 215.756 90.579 215.099C90.2634 214.87 90.3495 214.755 90.3208 214.412C90.7224 213.754 91.1815 213.525 91.8126 213.182Z" fill="#66EAFF"/>
<path d="M65.4191 174.812C65.5913 175.127 65.5339 174.984 65.6486 175.298C67.2839 179.56 70.5831 184.165 71.5872 188.398C72.0462 190.343 72.0462 192.631 70.956 194.376C69.7511 196.264 67.8003 196.922 65.7347 197.408C64.8741 197.265 63.956 197.151 63.1527 196.865C61.6609 196.35 60.2839 195.234 59.5954 193.833C57.0134 188.427 63.5544 180.104 65.3905 174.841L65.4191 174.812Z" fill="#00C1DF"/>
<path d="M63.6689 181.019C63.9845 181.133 64.1567 181.276 64.4435 181.477C64.9312 183.078 65.1608 184.766 64.6444 186.396C64.3575 187.34 63.8124 187.683 62.9804 188.113C62.5214 187.855 62.1198 187.483 61.8903 187.026C61.0009 185.052 62.8083 183.164 63.5255 181.448C63.5829 181.305 63.6403 181.162 63.6976 181.019H63.6689Z" fill="#66EAFF"/>
<path d="M81.1976 152.616C82.2017 153.904 86.964 164.515 87.2222 166.06C87.509 167.776 87.2795 169.664 86.2181 171.065C85.0705 172.581 83.3205 173.125 81.4844 173.382C80.882 173.325 80.3082 173.239 79.7344 173.067C78.1279 172.61 76.55 171.723 75.7754 170.178C72.964 164.801 79.5049 157.965 81.1115 152.96L81.2263 152.616H81.1976Z" fill="#00C1DF"/>
<path d="M79.5906 157.736C79.8488 157.879 79.9635 158.022 80.1644 158.251C80.4226 159.739 81.0824 162.427 80.566 163.857C80.3078 164.572 79.9922 164.687 79.3898 165.059C79.3324 165.002 79.2463 164.973 79.189 164.916C78.7586 164.63 78.2709 164.372 78.0414 163.886C77.2095 162.198 78.9021 159.281 79.5906 157.708V157.736Z" fill="#66EAFF"/>
<path d="M78.5872 168.777C79.1323 168.72 79.7061 168.691 80.2512 168.663C81.1118 168.605 81.6569 168.605 82.3167 169.178C82.3167 170.064 81.829 170.522 81.37 171.266C80.5093 171.266 79.3905 171.351 78.5872 171.008C77.9848 170.751 77.9561 170.665 77.7266 170.093C77.9274 169.521 78.1569 169.206 78.5872 168.777Z" fill="#66EAFF"/>
<path d="M135.54 160.485C136.343 161.286 141.048 171.297 141.392 172.813C141.765 174.529 141.708 176.56 140.704 178.076C139.527 179.878 137.577 180.479 135.597 180.908C134.995 180.793 134.363 180.707 133.761 180.536C132.212 180.078 130.777 179.02 130.089 177.561C127.536 172.155 133.589 165.72 135.396 160.886L135.54 160.514V160.485Z" fill="#00C1DF"/>
<path d="M134.306 165.891L134.65 166.177C135.109 167.722 135.339 170.153 134.478 171.64C134.134 172.212 133.675 172.298 133.043 172.47C132.584 171.812 132.183 171.125 131.752 170.439C132.412 168.751 132.957 167.207 134.306 165.92V165.891Z" fill="#66EAFF"/>
<path d="M134.334 175.616C135.023 175.616 135.683 175.559 136.285 175.902C136.658 176.102 136.601 176.188 136.687 176.56C136.371 177.475 135.683 177.933 134.937 178.505C134.162 178.476 133.129 178.362 132.642 177.675C132.298 177.218 132.384 177.018 132.527 176.503C133.101 175.902 133.531 175.788 134.306 175.616H134.334Z" fill="#66EAFF"/>
<path d="M115.802 159.493C115.343 159.15 115.056 158.578 114.855 158.063C112.761 153.115 118.584 146.365 120.248 141.817L120.392 141.416C120.966 142.36 121.511 143.247 121.855 144.305L121.97 144.62C123.662 148.796 127.908 153.43 125.957 158.178C125.929 158.263 125.871 158.349 125.843 158.464C125.814 158.549 125.757 158.635 125.699 158.721C125.642 158.807 125.613 158.893 125.556 158.978C125.498 159.064 125.441 159.15 125.384 159.236C125.326 159.322 125.269 159.407 125.212 159.493C125.154 159.579 125.097 159.665 125.039 159.722C124.982 159.779 124.925 159.865 124.839 159.951C124.781 160.037 124.695 160.094 124.638 160.18C124.58 160.237 124.494 160.323 124.408 160.38C124.322 160.437 124.265 160.523 124.179 160.58C124.093 160.637 124.035 160.695 123.949 160.752C123.863 160.809 123.777 160.866 123.691 160.923C123.605 160.981 123.519 161.038 123.433 161.095C123.347 161.152 123.261 161.181 123.175 161.238C123.089 161.295 123.003 161.324 122.916 161.381C122.83 161.41 122.744 161.467 122.63 161.495C121.052 162.125 119.445 161.982 117.953 161.238C117.121 160.809 116.404 160.294 115.802 159.55V159.493Z" fill="#00C1DF"/>
<path d="M122.601 157.062C123.634 153.716 121.798 151.199 121.252 148.024C121.052 146.765 121.109 145.392 121.826 144.334L121.941 144.649C123.634 148.825 127.88 153.458 125.929 158.206C125.9 158.292 125.843 158.378 125.814 158.492C125.785 158.578 125.728 158.664 125.67 158.75C125.613 158.836 125.584 158.921 125.527 159.007C125.47 159.093 125.412 159.179 125.355 159.265C125.298 159.35 125.24 159.436 125.183 159.522C125.125 159.608 125.068 159.694 125.011 159.751C124.953 159.808 124.896 159.894 124.81 159.98C124.752 160.065 124.666 160.123 124.609 160.208C124.552 160.266 124.466 160.351 124.38 160.409C124.293 160.466 124.236 160.552 124.15 160.609C124.064 160.666 124.007 160.723 123.92 160.781C123.834 160.838 123.748 160.895 123.662 160.952C123.576 161.009 123.49 161.067 123.404 161.124C123.318 161.181 123.232 161.21 123.146 161.267C123.06 161.324 122.974 161.353 122.888 161.41C122.802 161.438 122.716 161.496 122.601 161.524C121.023 162.153 119.416 162.01 117.925 161.267C117.093 160.838 116.375 160.323 115.773 159.579C116.691 159.922 117.552 160.351 118.412 160.838C120.22 161.21 121.597 160.952 123.347 160.466C124.121 159.722 125.584 158.492 125.642 157.348C125.642 157.034 125.384 156.919 125.154 156.719C124.121 156.49 123.519 156.776 122.572 157.148L122.601 157.062Z" fill="#66EAFF"/>
<path d="M118.814 146.822L119.13 146.994C119.675 147.595 119.79 148.596 119.761 149.368C119.704 150.741 119.245 151.284 118.269 152.2C117.839 152.142 117.954 152.2 117.609 152.028C117.322 151.885 117.38 151.971 117.265 151.599C116.749 150.026 118.04 148.167 118.814 146.851V146.822Z" fill="#66EAFF"/>
<path d="M121.706 183.664C122.48 184.522 122.939 186.067 123.427 187.125C124.862 190.1 126.985 192.931 127.386 196.278C127.587 197.994 127.3 199.939 126.153 201.283C124.976 202.656 123.398 203.114 121.648 203.228C120.931 203.143 120.271 203.057 119.612 202.828C118.292 202.342 117.03 201.283 116.427 199.968C114.132 194.819 120.042 188.584 121.62 183.979L121.735 183.664H121.706Z" fill="#00C1DF"/>
<path d="M120.214 188.813C120.702 189.756 121.018 190.843 121.391 191.816C121.018 193.16 120.76 193.99 119.669 194.905C119.469 194.819 119.124 194.705 118.952 194.59C118.608 194.362 118.464 194.076 118.378 193.675C118.034 192.102 119.411 190.071 120.214 188.784V188.813Z" fill="#66EAFF"/>
<path d="M119.239 198.795C120.358 198.795 121.907 198.566 122.825 199.224C122.739 199.882 122.423 200.054 121.993 200.54C121.649 200.797 121.448 200.912 121.018 200.969C120.157 201.055 119.698 200.826 119.096 200.254C118.952 199.596 119.038 199.424 119.268 198.795H119.239Z" fill="#66EAFF"/>
<path d="M104.665 167.818C105.641 168.676 109.198 176.742 109.628 178.258C110.087 179.946 110.231 182.005 109.227 183.55C108.251 185.066 106.415 185.609 104.751 185.981C104.063 185.895 103.317 185.781 102.657 185.523C101.337 185.037 100.133 184.093 99.6161 182.749C97.9235 178.487 102.944 171.766 104.665 167.79V167.818Z" fill="#00C1DF"/>
<path d="M103.603 172.195C103.603 172.195 103.776 172.395 103.804 172.509C104.263 173.51 104.292 176.885 103.603 177.829C103.144 178.459 102.829 178.487 102.14 178.687C101.767 178.115 101.366 177.515 101.308 176.828C101.165 174.998 102.513 173.539 103.575 172.195H103.603Z" fill="#66EAFF"/>
<path d="M103.776 181.862C104.55 181.833 105.267 181.719 105.899 182.148C105.64 182.892 104.78 183.435 104.177 183.921C103.718 183.95 103.116 184.036 102.657 183.921C102.083 183.778 101.911 183.492 101.624 183.035L101.796 182.52C102.399 181.976 102.972 181.948 103.747 181.862H103.776Z" fill="#66EAFF"/>
<path d="M98.9214 142.675L99.2083 142.56C100.155 143.905 103.081 149.969 103.626 151.513C103.999 152.571 104.114 153.715 104.2 154.86C103.54 156.519 102.966 157.977 101.216 158.721C100.643 158.978 100.126 159.036 99.5239 159.121C99.2083 159.179 99.2083 159.207 98.8353 159.207C97.487 159.207 96.4255 158.607 95.5075 157.691C94.905 157.091 94.5321 156.519 94.2452 155.718C92.9255 152.028 97.2862 146.021 98.9214 142.675Z" fill="#00C1DF"/>
<path d="M98.9216 142.675L99.2085 142.56C100.155 143.905 103.081 149.969 103.627 151.513C103.999 152.571 104.114 153.715 104.2 154.86C103.54 156.519 102.967 157.977 101.217 158.721C100.643 158.978 100.127 159.036 99.524 159.121C99.438 158.664 99.3806 158.864 99.6388 158.464C100.413 158.464 101.417 158.206 102.02 157.72C102.68 157.176 103.225 156.404 103.282 155.546C102.823 154.917 101.79 154.631 101.073 154.316L100.872 153.658C100.872 153.429 100.93 153.201 100.93 152.972C100.987 151.599 99.8396 146.164 99.0077 145.249C98.8355 145.735 98.7495 146.107 98.3478 146.422C97.9462 146.336 98.1183 146.422 97.8027 146.05C98.4626 145.077 98.8929 144.134 98.9503 142.932C98.9503 142.846 98.9503 142.761 98.9503 142.703L98.9216 142.675Z" fill="#66EAFF"/>
<path d="M97.6591 146.622C97.8025 146.708 97.8886 146.736 97.9747 146.879C98.5197 147.623 98.6345 150.254 98.405 151.141C98.2328 151.885 97.7165 152.056 97.1427 152.457C96.741 152.085 96.196 151.627 95.9951 151.113C95.4501 149.597 96.8845 147.852 97.6591 146.651V146.622Z" fill="#66EAFF"/>
<path d="M98.2903 157.749C97.7739 157.548 97.3435 157.319 96.8558 157.033C96.5689 156.547 96.5689 156.576 96.7124 156.061C97.1714 155.718 97.5444 155.517 98.1181 155.46C98.9214 155.346 99.4091 155.517 100.04 155.975C99.4665 156.576 98.8927 157.176 98.2903 157.749Z" fill="#66EAFF"/>
<path d="M91.2158 130.915L91.5601 130.2L91.9043 130.314C92.1052 130.772 92.392 131.287 92.5355 131.773C93.7691 133.69 95.4043 135.778 94.8593 138.18C94.8019 138.466 94.8019 138.409 94.7158 138.638C94.056 139.496 93.3388 140.154 92.1912 140.297C91.2158 140.411 90.4125 140.154 89.4945 139.782C89.0642 139.296 88.6625 138.809 88.4617 138.152C87.974 136.55 88.6912 135.291 89.4084 133.918L91.1584 130.858L91.2158 130.915Z" fill="#00C1DF"/>
<path d="M92.507 135.606C92.2775 134.919 92.0767 134.118 92.0193 133.375C91.9619 132.631 92.1054 132.345 92.5644 131.802C93.798 133.718 95.4332 135.806 94.8882 138.209C94.8308 138.495 94.8308 138.437 94.7447 138.666C94.4578 138.237 94.2283 137.951 93.798 137.665L93.5972 137.522C92.7078 136.893 92.6791 136.635 92.507 135.577V135.606Z" fill="#66EAFF"/>
<path d="M89.4658 133.976L91.2158 130.915C91.6175 132.574 91.8183 133.833 91.388 135.52L91.015 135.892C90.4699 135.777 90.2691 135.72 89.9248 135.205C89.7814 135.005 89.724 134.662 89.6666 134.405C89.5806 134.09 89.638 134.233 89.4658 133.918V133.976Z" fill="#66EAFF"/>
<path d="M64.0995 157.593L64.5298 157.365C64.9315 157.851 65.161 158.251 65.4192 158.823C66.3085 160.311 67.6282 162.313 67.0257 164.143C66.8249 164.773 66.5093 165.145 65.9069 165.431C65.0749 165.831 63.9848 165.659 63.1241 165.431C62.5503 165.03 62.12 164.544 61.8618 163.886C61.4889 162.885 62.0339 161.798 62.4069 160.883C63.038 159.796 63.6979 158.738 64.1282 157.565L64.0995 157.593Z" fill="#00C1DF"/>
<path d="M63.0952 165.459C63.4395 165.345 63.8411 165.288 64.2141 165.202C64.9887 165.002 65.419 164.83 65.8493 164.115C65.9928 163.171 65.3329 162.542 65.046 161.684C64.7591 160.797 64.9313 159.596 65.419 158.795C66.3083 160.282 67.628 162.284 67.0255 164.115C66.8247 164.744 66.5091 165.116 65.9067 165.402C65.0747 165.802 63.9846 165.631 63.1239 165.402L63.0952 165.459Z" fill="#66EAFF"/>
<path d="M64.0992 157.593C64.1853 158.795 64.5296 161.169 63.8124 162.17C63.5542 161.941 63.3533 161.712 63.1238 161.426C62.8943 161.14 62.7222 161.054 62.3779 160.911C63.0091 159.824 63.6689 158.766 64.0992 157.593Z" fill="#66EAFF"/>
<path d="M92.673 182.263L93.505 183.778C94.2509 185.008 94.9394 186.124 95.3124 187.525C95.255 187.783 95.1689 188.04 95.0829 188.298C94.8247 188.984 94.2509 189.499 93.5624 189.814C92.9312 190.1 92.1853 190.128 91.5255 189.814C90.923 189.499 90.5214 188.898 90.4066 188.24C89.9476 186.038 91.5542 184.007 92.6444 182.263H92.673Z" fill="#00C1DF"/>
<path d="M93.5052 183.779C94.2511 185.009 94.9396 186.124 95.3126 187.526C94.9683 187.468 94.5093 187.411 94.1937 187.268C93.7921 187.097 93.6774 186.925 93.5052 186.524C93.1323 185.752 93.1897 184.551 93.5052 183.75V183.779Z" fill="#66EAFF"/>
<path d="M75.1502 65C82.7537 65.1317 90.4503 65.2009 98.0526 65.0181L98.0536 67.9069C99.9913 67.9302 101.929 67.9253 103.866 67.8922L103.858 70.976C104.839 70.9758 105.821 70.9436 106.802 70.9255C106.957 72.9352 106.85 74.9973 106.775 77.0094L110.079 77.0138C110.19 76.0317 110.206 75.0486 110.231 74.0616L112.956 74.0302C113.027 73.0173 112.99 71.985 112.989 70.9693L129.997 70.9464C130.136 71.9917 130.198 72.9896 130.193 74.0442C132.09 74.0637 133.99 74.0442 135.888 74.0437C135.879 75.0349 135.907 76.0207 135.946 77.011C136.646 76.996 137.641 76.8665 138.289 77.1485C139.579 77.7101 138.339 78.7126 138.667 79.6381C139.525 80.3044 140.726 80.1131 141.749 80.0803L141.743 86.0681C142.721 86.1288 143.695 86.1001 144.674 86.0805C144.846 88.047 144.758 90.0809 144.761 92.0567L153.488 92.0735C153.538 93.1274 153.425 94.1207 153.292 95.1646L156.282 95.1602L156.297 98.2478L159.221 98.3068L159.229 100.877C159.348 103.889 159.454 106.966 159.248 109.974C159.355 111.943 159.333 113.913 159.326 115.883L156.304 115.87L156.289 119.001L153.528 119.003L153.538 121.903L140.271 121.888C138.092 121.891 135.697 122.087 133.542 121.825C133.13 121.193 133.297 119.771 133.302 119.001L127.207 119.01L127.213 121.907L124.198 121.908L124.214 124.982C118.543 124.934 112.831 124.844 107.163 124.994L107.156 121.904L104.189 121.914L104.214 118.996L100.893 119.001L100.892 121.914C98.9671 121.9 97.0346 121.853 95.1112 121.908L95.1003 124.971C90.3537 124.939 85.6071 124.948 80.8605 125L80.8323 121.916C78.9297 121.876 77.027 121.874 75.1243 121.912L75.1117 118.999L68.9507 118.987C68.9398 119.964 68.9737 120.95 68.7465 121.906C63.1106 121.884 57.4183 121.716 51.7876 121.92L51.7922 119.007L48.793 118.995C48.788 117.956 48.8058 116.912 48.7721 115.875L46.0016 115.872C45.9989 113.932 46.0551 111.971 45.981 110.034L45.8417 109.929C44.8983 109.887 43.9453 109.909 43.0006 109.906C42.9968 107.097 43.0113 104.287 43.0439 101.477L43.0118 100.948C43.1693 99.0507 43.0596 97.0592 43.0657 95.1506L45.9791 95.1524C46.0579 93.1791 46.0057 91.1863 46.0062 89.2107L51.8098 89.2094L51.8139 86.0646C54.735 86.145 57.6562 86.1442 60.5773 86.0624L60.5696 80.1101C61.5634 80.1253 62.5442 80.1014 63.5369 80.0492C63.6146 78.0557 63.5678 76.0535 63.5547 74.0585L66.3869 74.0546L66.3792 70.9543L69.3006 70.948L69.3343 67.9311L75.1447 67.9284L75.1502 65Z" fill="#00C1DF"/>
<path d="M75.1501 65C82.7537 65.1317 90.4503 65.2009 98.0525 65.0181L98.0536 67.9069C99.9913 67.9302 101.929 67.9253 103.866 67.8922L103.858 70.976C104.839 70.9758 105.821 70.9436 106.801 70.9255C106.957 72.9352 106.85 74.9973 106.775 77.0094L110.079 77.0138C110.19 76.0317 110.206 75.0486 110.23 74.0616L112.956 74.0302C113.027 73.0173 112.99 71.985 112.989 70.9693L129.997 70.9464C130.136 71.9917 130.198 72.9896 130.193 74.0442C132.09 74.0637 133.99 74.0442 135.888 74.0437C135.879 75.0349 135.907 76.0207 135.946 77.011C136.646 76.996 137.641 76.8665 138.289 77.1485C139.579 77.7101 138.339 78.7126 138.667 79.6381C139.525 80.3044 140.726 80.1131 141.749 80.0803L141.743 86.0681C142.72 86.1288 143.695 86.1001 144.674 86.0805C144.846 88.047 144.758 90.0809 144.761 92.0567L153.488 92.0735C153.538 93.1274 153.425 94.1207 153.292 95.1646L156.282 95.1602L156.297 98.2478L159.221 98.3068L159.229 100.877C157.571 101.252 155.341 100.976 153.625 100.971C153.598 99.973 153.626 98.975 153.645 97.9773L141.95 97.9769L141.973 94.8928L139.087 94.9289C139.057 93.9164 139.001 92.9 139.061 91.8879L136.161 91.9033L136.147 88.8797L124.457 88.8915L124.475 91.8948L121.561 91.8999L121.567 94.9211L127.365 94.9119L127.374 97.9884L130.292 97.9721L130.311 103.969L127.371 103.973L127.373 100.97L121.566 100.972L121.559 97.9547C117.705 97.9788 113.751 98.1464 109.908 97.8818L109.871 100.972L104.06 100.942C104.031 101.939 104.114 102.954 104.159 103.952L101.156 103.984L101.161 107.048L98.2116 107.049L98.2074 100.968L101.169 100.951L101.169 94.8989C99.2243 94.9431 97.2797 94.9514 95.3349 94.9237C95.2879 93.9186 95.3161 92.9071 95.3246 91.9009L80.7308 91.8977L80.7561 94.9052L77.8247 94.9319L77.8354 97.8861C76.8581 97.961 75.8687 97.9547 74.8886 97.9736L74.9021 91.8742L77.8278 91.9162L77.8254 88.8967L80.7506 88.905C80.7206 87.8811 80.7574 86.8645 80.7963 85.8411L77.8365 85.8309L77.8293 82.8243C74.9108 82.8582 71.9897 82.8249 69.0709 82.8177L69.0746 85.8387L66.1313 85.8383L66.1614 88.9015L69.0751 88.9193L69.0635 91.8929L51.5582 91.8938C51.5325 92.8945 51.5891 93.8996 51.6248 94.9002L48.6719 94.9215L48.6777 97.9327L45.7305 97.9758L45.7326 100.972L43.0117 100.948C43.1692 99.0507 43.0595 97.0592 43.0656 95.1506L45.979 95.1524C46.0579 93.1791 46.0057 91.1863 46.0062 89.2107L51.8097 89.2094L51.8139 86.0646C54.735 86.145 57.6561 86.1442 60.5772 86.0624L60.5696 80.1101C61.5634 80.1253 62.5441 80.1014 63.5368 80.0492C63.6145 78.0557 63.5677 76.0535 63.5547 74.0585L66.3868 74.0546L66.3792 70.9543L69.3005 70.948L69.3342 67.9311L75.1447 67.9284L75.1501 65Z" fill="#66EAFF"/>
<path d="M109.884 85.8383L115.736 85.8535L115.759 88.8906L118.617 88.8893L118.617 91.8922C117.205 91.9018 110.705 91.61 109.901 92.0804L109.876 94.901L104.113 94.918L104.081 91.8979L106.995 91.8855L106.982 88.8915L109.932 88.866C109.911 87.8569 109.895 86.8476 109.884 85.8383Z" fill="#00C1DF"/>
<path d="M95.3304 82.8236L104.045 82.8293L104.041 85.8559C103.239 85.8466 101.865 85.6649 101.154 85.9817L101.153 88.8963L98.2106 88.9041L98.2195 85.8653L95.3656 85.8133C95.3134 84.8182 95.3301 83.8198 95.3304 82.8236Z" fill="#00C1DF"/>
<path d="M156.59 110.039C157.477 110.048 158.365 110.079 159.248 109.974C159.355 111.943 159.333 113.912 159.326 115.883L156.304 115.87L156.289 119.001L153.528 119.003L153.538 121.903L140.271 121.888C138.092 121.891 135.697 122.087 133.542 121.824C133.13 121.193 133.297 119.771 133.302 119.001L127.207 119.009L127.213 121.907L124.198 121.908L124.214 124.982C118.543 124.933 112.831 124.844 107.163 124.994L107.156 121.904L104.189 121.914L104.214 118.996L100.892 119.001L100.892 121.914C98.9671 121.899 97.0346 121.852 95.1112 121.907L95.1003 124.971C90.3536 124.938 85.607 124.948 80.8605 125L80.8322 121.916C78.9296 121.876 77.027 121.874 75.1243 121.912L75.1116 118.998L68.9506 118.987C68.9397 119.964 68.9737 120.949 68.7465 121.905C63.1106 121.884 57.4183 121.716 51.7876 121.92L51.7921 119.007L48.7929 118.994C48.7879 117.956 48.8058 116.912 48.7721 115.874L46.0016 115.871C45.9988 113.931 46.0551 111.971 45.981 110.034L48.678 110.016L48.6781 113.045L51.5889 113.049L51.6285 116.118C53.5456 116.128 55.4625 116.117 57.3793 116.086L57.4385 119.092C60.3412 119.122 63.244 119.126 66.1468 119.103L66.1126 116.135C67.1019 116.147 68.0941 116.092 69.0827 116.054L69.0594 113.039L71.9956 113.034L72.0088 116.136L77.8393 116.097L77.811 119.117L98.2024 119.122L98.2116 116.134L101.158 116.089L101.168 113.014L104.027 113.045L104.032 116.134L107.004 116.098L107.008 119.124L112.811 119.118L112.791 122.155L118.61 122.103L118.634 119.094C120.585 119.143 122.544 119.11 124.496 119.112C124.418 118.12 124.441 117.109 124.43 116.115L127.33 116.136L127.403 113.034C128.376 113.052 129.352 113.038 130.325 113.038L130.322 116.128L139.09 116.105C139.079 117.11 139.053 118.114 139.011 119.119L147.765 119.118L147.78 116.15L153.62 116.126L153.614 113.039L156.561 113.044L156.59 110.039Z" fill="#0089A8"/>
<path d="M43.0439 101.477C43.2625 102.293 43.2136 103.129 43.2023 103.965C44.0624 103.952 44.9259 103.952 45.7852 103.917C45.727 105.703 45.3909 108.209 45.8417 109.929C44.8983 109.887 43.9453 109.909 43.0006 109.906C42.9968 107.096 43.0113 104.287 43.0439 101.477Z" fill="#0089A8"/>
<path d="M130.311 103.969L133.165 103.969C133.173 104.989 133.205 106.016 133.173 107.034L130.322 107.049L130.311 103.969Z" fill="#66EAFF"/>
<path d="M139.089 97.9714L141.95 97.9769L141.947 100.962L139.057 100.986C139.018 99.9788 139.053 98.9783 139.089 97.9714Z" fill="#66EAFF"/>
<path d="M60.2976 98.0025C63.2202 97.9953 66.1425 97.9671 69.0646 97.9181L69.0627 100.959L71.9905 100.971L71.9962 103.97L74.8655 103.971L74.8897 107.047C72.9519 107.046 71.0089 107.074 69.0718 107.028L69.0694 103.959C64.2234 104.015 59.3354 104.123 54.4935 103.973L54.4858 100.963L60.3181 100.967L60.2976 98.0025Z" fill="#66EAFF"/>
<path d="M141.974 103.987C144.891 103.97 147.807 103.971 150.724 103.99L150.714 107.02L153.592 107.053L153.647 110.027L147.564 110.037L141.948 110.028L141.945 113.056L139.082 113.061C139.025 111.053 138.989 109.039 139.112 107.033L141.957 107.071L141.974 103.987Z" fill="#66EAFF"/>
<path d="M83.6386 107.057L92.4037 107.058L92.3998 110.04L95.2804 110.031C95.359 112.066 95.3098 114.093 95.2632 116.128C94.3204 116.087 93.3668 116.125 92.4226 116.138L92.4065 113.043C88.5172 113.079 84.628 113.079 80.7388 113.043C80.6944 112.033 80.7277 111.044 80.7832 110.035L83.6456 110.037L83.6386 107.057Z" fill="#66EAFF"/>
<path d="M109.91 107.067C113.792 107.009 117.681 107.048 121.564 107.038L121.559 113.046C120.58 113.07 119.597 113.053 118.618 113.052L118.62 110.039L112.795 110.019L112.793 113.035C110.862 113.067 108.932 113.069 107.001 113.042L106.984 110.047L109.902 110.039C109.867 109.049 109.895 108.058 109.91 107.067Z" fill="#66EAFF"/>
<path d="M51.5327 103.988L54.4936 103.973L54.4952 107.044L51.6428 107.055L51.5327 103.988Z" fill="#66EAFF"/>
<path d="M77.8431 113.058L80.7413 113.044L80.6869 116.127C79.7395 116.094 78.784 116.118 77.8354 116.117L77.8431 113.058Z" fill="#66EAFF"/>
<defs>
<filter id="filter0_d_1590_180722" x="81" y="0" width="242" height="53" filterUnits="userSpaceOnUse" color-interpolation-filters="sRGB">
<feFlood flood-opacity="0" result="BackgroundImageFix"/>
<feColorMatrix in="SourceAlpha" type="matrix" values="0 0 0 0 0 0 0 0 0 0 0 0 0 0 0 0 0 0 127 0" result="hardAlpha"/>
<feOffset dy="5"/>
<feComposite in2="hardAlpha" operator="out"/>
<feColorMatrix type="matrix" values="0 0 0 0 0 0 0 0 0 0.517647 0 0 0 0 0.596078 0 0 0 1 0"/>
<feBlend mode="normal" in2="BackgroundImageFix" result="effect1_dropShadow_1590_180722"/>
<feBlend mode="normal" in="SourceGraphic" in2="effect1_dropShadow_1590_180722" result="shape"/>
</filter>
<clipPath id="clip0_1590_180722">
<rect width="36" height="66" fill="white" transform="matrix(-5.03359e-08 -1 -1 3.79587e-08 66 367)"/>
</clipPath>
<clipPath id="clip1_1590_180722">
<rect width="36" height="82" fill="white" transform="matrix(-1 0 0 1 116 232)"/>
</clipPath>
</defs>
</svg>
